<svg xmlns="http://www.w3.org/2000/svg" viewBox="0 0 24 24"><path d="M3.89 15.00Q3.89 13.73 5.72 11.91 6.98 11.91L11.02 11.91L11.02 9.98L6.98 9.98Q5.62 9.98 3.33 11.34 2.02 13.64 2.02 16.36 3.33 18.66 5.62 20.02 6.98 20.02L11.02 20.02L11.02 18.09L6.98 18.09Q5.72 18.09 3.89 16.27 3.89 15.00ZM8.02 15.98L15.98 15.98L15.98 14.02L8.02 14.02ZM17.02 9.98L12.98 9.98L12.98 11.91L17.02 11.91Q18.28 11.91 20.11 13.73 20.11 16.27 18.28 18.09 17.02 18.09L12.98 18.09L12.98 20.02L17.02 20.02Q18.38 20.02 20.67 18.66 21.98 16.36 21.98 13.64 20.67 11.34 18.38 9.98 17.02 9.98Z"/></svg>
