<svg xmlns="http://www.w3.org/2000/svg" viewBox="0 0 24 24"><path d="M19.64 12.66L19.31 11.72L21.14 11.02Q20.48 9.42 18.09 6.94 16.55 6.14L15.75 7.92L14.81 7.50L15.61 5.72Q13.83 5.02 12.00 5.02Q10.69 5.02 8.95 5.48L9.66 7.36L8.72 7.69L8.02 5.86Q6.42 6.52 3.94 8.91 3.14 10.45L4.92 11.25L4.50 12.19L2.72 11.39Q2.02 13.17 2.02 15.00Q2.02 16.31 2.48 18.05L4.36 17.34L4.69 18.28L2.86 18.98Q3.52 20.58 5.91 23.06 7.45 23.86L8.25 22.08L9.19 22.50L8.39 24.28Q10.17 24.98 12.00 24.98Q13.31 24.98 15.05 24.52L14.34 22.64L15.28 22.31L15.98 24.14Q17.58 23.48 20.06 21.09 20.86 19.55L19.08 18.75L19.50 17.81L21.28 18.61Q21.98 16.83 21.98 15.00Q21.98 13.69 21.52 11.95ZM14.30 20.53Q12.80 21.14 9.61 20.72 7.08 18.80 5.86 15.80 6.28 12.61 8.20 10.08 11.20 8.86 14.39 9.28 16.92 11.20 18.19 14.20 17.72 17.39 15.80 19.92 14.30 20.53Z"/></svg>
