<svg xmlns="http://www.w3.org/2000/svg" viewBox="0 0 24 24"><path d="M6.98 8.02L21.00 8.02L21.00 9.98L6.98 9.98ZM6.98 15.98L6.98 14.02L21.00 14.02L21.00 15.98ZM3.98 7.50Q4.64 7.50 5.48 8.39 5.48 9.61 4.64 10.50 3.38 10.50 2.48 9.61 2.48 8.39 3.38 7.50 3.98 7.50ZM3.98 13.50Q4.64 13.50 5.48 14.39 5.48 15.61 4.64 16.50 3.38 16.50 2.48 15.61 2.48 14.39 3.38 13.50 3.98 13.50ZM6.98 21.98L6.98 20.02L21.00 20.02L21.00 21.98ZM3.98 19.50Q4.64 19.50 5.48 20.39 5.48 21.61 4.64 22.50 3.38 22.50 2.48 21.61 2.48 20.39 3.38 19.50 3.98 19.50Z"/></svg>
