<svg xmlns="http://www.w3.org/2000/svg" viewBox="0 0 24 24"><path d="M14.02 15.00L19.50 15.00L14.02 9.52ZM8.02 8.02L15.00 8.02L21.00 14.02L21.00 24.00Q21.00 24.84 19.83 26.02 18.98 26.02L8.02 26.02Q7.17 26.02 6.00 24.84 6.00 24.00L6.00 21.00L11.02 21.00L11.02 23.02L15.00 20.02L11.02 17.02L11.02 18.98L6.00 18.98L6.00 9.98Q6.00 9.19 7.17 8.02 8.02 8.02ZM13.50 6.00L3.98 6.00L3.98 18.98L6.00 18.98L6.00 21.00L3.98 21.00Q3.19 21.00 2.02 19.83 2.02 18.98L2.02 6.00Q2.02 5.16 3.19 3.98 3.98 3.98L11.48 3.98Z"/></svg>
