<svg xmlns="http://www.w3.org/2000/svg" viewBox="0 0 24 24"><path d="M18.98 6.00L14.81 6.00Q14.48 5.11 12.94 3.98 11.06 3.98 9.52 5.11 9.19 6.00L5.02 6.00Q4.17 6.00 3.00 7.17 3.00 8.02L3.00 21.98Q3.00 22.83 4.17 24.00 5.02 24.00L18.98 24.00Q19.83 24.00 21.00 22.83 21.00 21.98L21.00 8.02Q21.00 7.17 19.83 6.00 18.98 6.00ZM12.00 6.00Q12.42 6.00 12.98 6.56 12.98 7.41 12.42 8.02 11.58 8.02 11.02 7.41 11.02 6.56 11.58 6.00 12.00 6.00ZM5.02 18.00L8.11 18.00L9.61 15.14L10.36 20.91L14.06 16.22L15.89 18.00L18.98 18.00L18.98 21.98L5.02 21.98ZM18.98 16.45L16.55 16.45L13.92 13.88L11.44 17.06L10.50 10.08L7.17 16.45L5.02 16.45L5.02 8.02L6.98 8.02L6.98 9.00L17.02 9.00L17.02 8.02L18.98 8.02Z"/></svg>
