<svg xmlns="http://www.w3.org/2000/svg" viewBox="0 0 24 24"><path d="M21.00 18.98L21.00 15.98Q21.00 15.19 19.83 14.02 18.98 14.02L12.98 14.02L12.98 11.02L15.00 11.02L15.00 5.02L9.00 5.02L9.00 11.02L11.02 11.02L11.02 14.02L5.02 14.02Q4.17 14.02 3.00 15.19 3.00 15.98L3.00 18.98L0.98 18.98L0.98 24.98L6.98 24.98L6.98 18.98L5.02 18.98L5.02 15.98L11.02 15.98L11.02 18.98L9.00 18.98L9.00 24.98L15.00 24.98L15.00 18.98L12.98 18.98L12.98 15.98L18.98 15.98L18.98 18.98L17.02 18.98L17.02 24.98L23.02 24.98L23.02 18.98ZM11.02 6.98L12.98 6.98L12.98 9.00L11.02 9.00ZM5.02 23.02L3.00 23.02L3.00 21.00L5.02 21.00ZM12.98 23.02L11.02 23.02L11.02 21.00L12.98 21.00ZM21.00 23.02L18.98 23.02L18.98 21.00L21.00 21.00Z"/></svg>
