<svg xmlns="http://www.w3.org/2000/svg" viewBox="0 0 24 24"><path d="M21.00 23.02Q21.00 23.39 20.39 24.00 20.02 24.00L18.98 24.00L18.98 21.98L21.00 21.98ZM15.00 24.00L15.00 21.98L17.02 21.98L17.02 24.00ZM11.02 24.00L11.02 21.98L12.98 21.98L12.98 24.00ZM6.98 24.00L6.98 21.98L9.00 21.98L9.00 24.00ZM3.98 24.00Q3.61 24.00 3.00 23.39 3.00 23.02L3.00 21.98L5.02 21.98L5.02 24.00ZM3.00 18.00L5.02 18.00L5.02 20.02L3.00 20.02ZM21.00 18.00L21.00 20.02L18.98 20.02L18.98 18.00ZM14.58 11.02L12.00 13.59L9.42 11.02L8.02 12.42L10.59 15.00L8.02 17.58L9.42 18.98L12.00 16.41L14.58 18.98L15.98 17.58L13.41 15.00L15.98 12.42ZM3.00 14.02L5.02 14.02L5.02 15.98L3.00 15.98ZM21.00 14.02L21.00 15.98L18.98 15.98L18.98 14.02ZM3.00 9.98L5.02 9.98L5.02 12.00L3.00 12.00ZM21.00 9.98L21.00 12.00L18.98 12.00L18.98 9.98ZM3.98 6.00L5.02 6.00L5.02 8.02L3.00 8.02L3.00 6.98Q3.00 6.61 3.61 6.00 3.98 6.00ZM20.02 6.00Q20.39 6.00 21.00 6.61 21.00 6.98L21.00 8.02L18.98 8.02L18.98 6.00ZM15.00 8.02L15.00 6.00L17.02 6.00L17.02 8.02ZM11.02 8.02L11.02 6.00L12.98 6.00L12.98 8.02ZM6.98 8.02L6.98 6.00L9.00 6.00L9.00 8.02Z"/></svg>
