<svg xmlns="http://www.w3.org/2000/svg" viewBox="0 0 24 24"><path d="M18.98 15.00L18.98 16.50Q20.67 16.50 23.02 18.84 23.02 20.48Q23.02 21.70 22.31 22.69L21.23 21.61Q21.52 21.09 21.52 20.48Q21.52 19.45 20.02 18.00 18.98 18.00L18.98 19.50L16.73 17.25ZM18.98 26.02L18.98 24.52Q17.34 24.52 15.00 22.17 15.00 20.48Q15.00 19.31 15.66 18.28L16.78 19.36Q16.50 19.92 16.50 20.48Q16.50 21.52 17.95 23.02 18.98 23.02L18.98 21.52L21.23 23.77ZM12.00 6.00Q14.16 6.00 17.86 7.08 20.02 8.91 20.02 11.11 17.86 12.94 14.16 14.02 9.84 14.02 6.14 12.94 3.98 11.11 3.98 8.91 6.14 7.08 9.84 6.00 12.00 6.00ZM3.98 12.00Q3.98 13.08 6.14 14.91 9.84 15.98 12.00 15.98Q13.64 15.98 15.14 15.70Q13.64 17.02 13.17 18.94L12.00 18.98Q9.84 18.98 6.14 17.91 3.98 16.08 3.98 15.00ZM20.02 12.00L20.02 14.02L18.89 14.02Q20.02 13.08 20.02 12.00ZM3.98 17.02Q3.98 18.09 6.14 19.92 9.84 21.00 12.00 21.00L12.98 20.95Q13.12 22.50 13.97 23.86L12.00 24.00Q9.84 24.00 6.14 22.92 3.98 21.09 3.98 20.02Z"/></svg>
