<svg xmlns="http://www.w3.org/2000/svg" viewBox="0 0 24 24"><path d="M18.98 20.02L18.98 21.98L6.98 21.98L6.98 20.02L7.03 19.59Q7.12 19.08 7.41 18.61Q7.73 17.91 8.30 17.39Q9.00 16.78 10.08 16.41Q11.30 15.98 12.98 15.98Q15.66 15.98 17.20 17.02Q18.33 17.77 18.80 18.98Q18.98 19.55 18.98 20.02ZM15.98 11.02Q15.98 9.75 14.25 8.02 11.77 8.02 9.98 9.75 9.98 12.23 11.77 14.02 14.25 14.02 15.98 12.23 15.98 11.02ZM19.22 16.08Q20.02 16.83 20.95 18.89 21.00 20.02L21.00 21.98L24.00 21.98L24.00 20.02L23.91 19.45Q23.77 18.80 23.39 18.23Q22.88 17.39 21.98 16.88Q20.86 16.22 19.22 16.08ZM18.00 8.02Q17.53 8.02 17.11 8.16Q18.00 9.42 18.00 12.56 17.11 13.88Q17.53 14.02 18.00 14.02Q19.27 14.02 21.00 12.23 21.00 9.75 19.27 8.02 18.00 8.02ZM8.02 12.98L5.02 12.98L5.02 9.98L3.00 9.98L3.00 12.98L0.00 12.98L0.00 15.00L3.00 15.00L3.00 18.00L5.02 18.00L5.02 15.00L8.02 15.00Z"/></svg>
