<svg xmlns="http://www.w3.org/2000/svg" viewBox="0 0 24 24"><path d="M9.00 12.98L9.00 15.00L6.98 15.00L6.98 12.98ZM12.98 12.98L12.98 15.00L11.02 15.00L11.02 12.98ZM17.02 12.98L17.02 15.00L15.00 15.00L15.00 12.98ZM18.98 6.00Q19.83 6.00 21.00 7.17 21.00 8.02L21.00 21.98Q21.00 22.83 19.83 24.00 18.98 24.00L5.02 24.00Q4.17 24.00 3.00 22.83 3.00 21.98L3.00 8.02Q3.00 7.17 4.17 6.00 5.02 6.00L6.00 6.00L6.00 3.98L8.02 3.98L8.02 6.00L15.98 6.00L15.98 3.98L18.00 3.98L18.00 6.00ZM18.98 21.98L18.98 11.02L5.02 11.02L5.02 21.98ZM9.00 17.02L9.00 18.98L6.98 18.98L6.98 17.02ZM12.98 17.02L12.98 18.98L11.02 18.98L11.02 17.02ZM17.02 17.02L17.02 18.98L15.00 18.98L15.00 17.02Z"/></svg>
