<svg xmlns="http://www.w3.org/2000/svg" viewBox="0 0 24 24"><path d="M12.00 21.00Q12.00 22.45 12.66 23.72L12.00 24.33L10.55 23.02Q7.31 20.11 6.05 18.80Q4.03 16.73 3.09 15.14Q2.02 13.31 2.02 11.48Q2.02 9.98 3.47 7.45 6.00 6.00 7.50 6.00Q8.81 6.00 11.16 7.12 12.00 8.06Q12.84 7.12 15.19 6.00 16.50 6.00Q18.00 6.00 20.53 7.45 21.98 9.98 21.98 11.48Q21.98 13.50 20.62 15.61Q19.36 15.00 18.00 15.00Q16.36 15.00 13.59 16.59 12.00 19.36 12.00 21.00ZM21.56 18.89L20.11 17.48L18.00 19.59L15.89 17.48L14.48 18.89L16.59 21.00L14.48 23.11L15.89 24.56L18.00 22.41L20.11 24.56L21.56 23.11L19.41 21.00Z"/></svg>
