<svg xmlns="http://www.w3.org/2000/svg" viewBox="0 0 24 24"><path d="M12.98 5.02L12.98 7.03Q15.14 7.31 18.56 9.89 20.20 13.83 19.97 15.98Q19.59 18.70 15.70 22.59 12.98 22.92L12.98 24.94Q15.70 24.66 20.02 21.52 22.22 16.69 21.94 14.02Q21.75 11.67 19.27 7.73 15.33 5.25 12.98 5.02ZM11.02 5.06Q7.97 5.34 5.67 7.27L7.08 8.72Q8.81 7.36 11.02 7.08ZM4.27 8.67Q2.34 10.97 2.06 14.02L4.03 14.02Q4.36 11.81 5.67 10.08ZM2.06 15.98Q2.34 18.98 4.27 21.33L5.67 19.92Q4.31 18.14 4.08 15.98ZM7.08 21.38L5.67 22.73Q8.02 24.66 11.02 24.98L11.02 23.02Q8.86 22.73 7.08 21.38ZM14.58 11.02L12.00 13.59L9.42 11.02L8.02 12.42L10.59 15.00L8.02 17.58L9.42 18.98L12.00 16.41L14.58 18.98L15.98 17.58L13.41 15.00L15.98 12.42Z"/></svg>
