<svg xmlns="http://www.w3.org/2000/svg" viewBox="0 0 24 24"><path d="M2.02 8.25L3.28 6.98L20.02 23.72L18.75 24.98L15.66 21.94Q13.88 22.50 12.00 22.50Q8.30 22.50 2.30 18.33 0.98 15.00Q2.02 12.33 4.17 10.45ZM12.00 12.00Q13.27 12.00 15.00 13.73 15.00 15.00Q15.00 15.52 14.81 15.98L11.02 12.19Q11.48 12.00 12.00 12.00ZM12.00 7.50Q15.70 7.50 21.70 11.67 23.02 15.00Q21.75 18.19 18.98 20.20L17.58 18.75Q19.69 17.30 20.81 15.00Q19.59 12.47 14.81 9.52 12.00 9.52Q10.41 9.52 8.86 9.98L7.31 8.48Q9.56 7.50 12.00 7.50ZM3.19 15.00Q4.41 17.53 9.19 20.48 12.00 20.48Q13.08 20.48 14.02 20.30L11.72 18.00Q10.64 17.91 9.09 16.36 9.00 15.28L5.58 11.86Q4.08 13.17 3.19 15.00Z"/></svg>
