<svg xmlns="http://www.w3.org/2000/svg" viewBox="0 0 24 24"><path d="M12.00 5.02Q12.84 5.02 14.02 6.19 14.02 6.98Q14.02 7.55 13.45 8.48 12.98 8.72L12.98 9.98L14.02 9.98Q15.89 9.98 19.12 11.91 21.00 15.09 21.00 17.02L21.98 17.02Q22.41 17.02 23.02 17.58 23.02 18.00L23.02 21.00Q23.02 21.42 22.41 21.98 21.98 21.98L21.00 21.98L21.00 23.02Q21.00 23.81 19.83 24.98 18.98 24.98L5.02 24.98Q4.17 24.98 3.00 23.81 3.00 23.02L3.00 21.98L2.02 21.98Q1.59 21.98 0.98 21.42 0.98 21.00L0.98 18.00Q0.98 17.58 1.59 17.02 2.02 17.02L3.00 17.02Q3.00 15.09 4.88 11.91 8.11 9.98 9.98 9.98L11.02 9.98L11.02 8.72Q10.55 8.48 9.98 7.55 9.98 6.98Q9.98 6.19 11.16 5.02 12.00 5.02ZM7.50 15.98Q6.47 15.98 5.02 17.48 5.02 19.55 6.47 21.00 8.53 21.00 9.98 19.55 9.98 17.48 8.53 15.98 7.50 15.98ZM16.50 15.98Q15.47 15.98 14.02 17.48 14.02 19.55 15.47 21.00 17.53 21.00 18.98 19.55 18.98 17.48 17.53 15.98 16.50 15.98Z"/></svg>
