<svg xmlns="http://www.w3.org/2000/svg" viewBox="0 0 24 24"><path d="M8.02 15.00L15.98 15.00L15.98 17.02L8.02 17.02ZM9.98 23.02L6.00 23.02L6.00 6.98L12.98 6.98L12.98 12.00L18.00 12.00L18.00 15.09L20.02 13.08L20.02 11.02L14.02 5.02L6.00 5.02Q5.16 5.02 3.98 6.19 3.98 6.98L3.98 23.02Q3.98 23.81 5.16 24.98 6.00 24.98L9.98 24.98ZM8.02 21.00L12.09 21.00L12.98 20.11L12.98 18.98L8.02 18.98ZM20.20 15.98Q20.39 15.98 20.58 16.22L21.89 17.48Q22.03 17.67 22.03 18.14 21.89 18.28L20.91 19.31L18.80 17.20L19.78 16.22Q20.02 15.98 20.20 15.98ZM20.20 19.92L14.11 26.02L12.00 26.02L12.00 23.91L18.09 17.81Z"/></svg>
