<svg xmlns="http://www.w3.org/2000/svg" viewBox="0 0 24 24"><path d="M8.86 15.00L3.94 19.92L2.48 18.52L5.02 15.98L0.00 15.98L0.00 14.02L5.02 14.02L2.48 11.48L3.94 10.08ZM12.00 6.00Q9.47 6.00 5.39 7.41 4.55 8.58L5.02 9.00L6.05 10.08L6.00 9.98Q6.00 9.70 6.70 9.28Q7.50 8.72 8.72 8.39Q10.22 8.02 13.78 8.02 15.28 8.39Q16.50 8.72 17.30 9.28Q18.00 9.70 18.00 10.31 17.30 10.73Q16.50 11.25 15.28 11.58Q13.78 12.00 10.22 12.00 8.67 11.58Q7.50 11.25 6.70 10.73L9.80 13.83Q10.92 14.02 12.00 14.02Q13.73 14.02 16.88 13.27 18.00 12.66L18.00 15.47Q17.02 16.17 13.83 17.02 12.00 17.02Q10.59 17.02 9.23 16.73L7.59 18.38Q9.66 18.98 12.00 18.98Q15.47 18.98 18.00 17.77L18.00 20.02Q18.00 20.30 17.30 20.72Q16.50 21.28 15.28 21.61Q13.78 21.98 10.22 21.98 8.72 21.61Q7.50 21.28 6.70 20.72Q6.00 20.30 6.00 20.02L6.00 19.97L5.02 21.00L4.55 21.42Q5.44 22.59 9.47 24.00 12.00 24.00Q14.16 24.00 17.86 22.92 20.02 21.09 20.02 20.02L20.02 9.98Q20.02 8.91 17.86 7.08 14.16 6.00 12.00 6.00Z"/></svg>
