<svg xmlns="http://www.w3.org/2000/svg" viewBox="0 0 24 24"><path d="M11.02 18.00L12.98 18.00L12.98 20.02L11.02 20.02ZM11.02 9.98L12.98 9.98L12.98 15.98L11.02 15.98ZM12.00 5.02Q9.28 5.02 4.69 7.69 2.02 12.28 2.02 15.00Q2.02 16.97 3.52 20.67 6.33 23.48 10.03 24.98 13.97 24.98 17.67 23.48 20.48 20.67 21.98 16.97 21.98 13.03 20.48 9.33 17.67 6.52 13.97 5.02 12.00 5.02ZM12.00 23.02Q9.84 23.02 6.14 20.86 3.98 17.16 3.98 12.84 6.14 9.14 9.84 6.98 14.16 6.98 17.86 9.14 20.02 12.84 20.02 17.16 17.86 20.86 14.16 23.02 12.00 23.02Z"/></svg>
