<svg xmlns="http://www.w3.org/2000/svg" viewBox="0 0 24 24"><path d="M11.02 20.02L3.98 20.02Q3.19 20.02 2.02 18.84 2.02 18.00L2.02 6.00Q2.02 5.16 3.19 3.98 3.98 3.98L15.98 3.98L15.98 6.00L3.98 6.00L3.98 18.00L11.02 18.00L11.02 15.98L15.00 18.98L11.02 21.98ZM18.98 24.00L18.98 9.98L8.02 9.98L8.02 15.98L6.00 15.98L6.00 9.98Q6.00 9.19 7.17 8.02 8.02 8.02L18.98 8.02Q19.83 8.02 21.00 9.19 21.00 9.98L21.00 24.00Q21.00 24.84 19.83 26.02 18.98 26.02L8.02 26.02Q7.17 26.02 6.00 24.84 6.00 24.00L6.00 21.98L8.02 21.98L8.02 24.00Z"/></svg>
