<svg xmlns="http://www.w3.org/2000/svg" viewBox="0 0 24 24"><path d="M15.89 21.47Q16.92 21.47 18.33 20.02 18.33 18.00 16.92 16.55 14.86 16.55 13.45 18.00 13.45 20.02 14.86 21.47 15.89 21.47ZM21.09 19.69L22.59 20.86Q22.83 21.05 22.64 21.28L21.28 23.72Q21.09 23.95 20.81 23.86L19.08 23.16Q18.56 23.58 17.91 23.86L17.62 25.69Q17.62 25.83 17.44 26.02 17.30 26.02L14.48 26.02Q14.20 26.02 14.16 25.69L13.88 23.86Q13.27 23.58 12.70 23.16L10.97 23.86Q10.83 23.91 10.59 23.81 10.55 23.72L9.14 21.28Q9.00 21.05 9.23 20.86L10.69 19.69L10.64 18.98L10.69 18.33L9.23 17.16Q9.00 16.97 9.14 16.69L10.55 14.30Q10.59 14.16 10.83 14.06 10.97 14.11L12.70 14.86Q13.31 14.39 13.88 14.16L14.16 12.28Q14.20 12.00 14.48 12.00L17.30 12.00Q17.44 12.00 17.62 12.19 17.62 12.28L17.91 14.16Q18.52 14.39 19.08 14.86L20.81 14.11Q21.09 14.02 21.28 14.30L22.64 16.69Q22.83 16.97 22.59 17.16L21.09 18.33L21.14 18.98ZM6.70 11.06Q7.36 11.06 8.25 10.17 8.25 8.86 7.36 7.92 6.05 7.92 5.11 8.86 5.11 10.17 6.05 11.06 6.70 11.06ZM10.03 9.94L11.02 10.69Q11.11 10.83 11.02 10.97L10.12 12.52Q10.03 12.70 9.84 12.61L8.72 12.19L8.02 12.61L7.83 13.83Q7.78 14.02 7.59 14.02L5.81 14.02Q5.58 14.02 5.58 13.83L5.39 12.61L4.64 12.19L3.52 12.61Q3.33 12.70 3.23 12.52L2.34 10.97Q2.25 10.83 2.39 10.69L3.33 9.94L3.33 9.52L3.33 9.05L2.39 8.30Q2.25 8.20 2.34 8.02L3.23 6.47Q3.33 6.28 3.52 6.38L4.64 6.80L5.39 6.38L5.58 5.20Q5.58 5.02 5.81 5.02L7.59 5.02Q7.78 5.02 7.83 5.20L8.02 6.38L8.72 6.80L9.84 6.38Q10.03 6.28 10.12 6.47L11.02 8.02Q11.11 8.20 11.02 8.30L10.03 9.05L10.08 9.52Z"/></svg>
