<svg xmlns="http://www.w3.org/2000/svg" viewBox="0 0 24 24"><path d="M10.59 16.41Q10.88 16.69 10.88 17.53 10.31 18.14 9.47 18.14 9.19 17.81Q8.20 16.88 7.55 14.30 8.20 11.72 9.19 10.78L9.19 10.78L12.70 7.22Q13.69 6.28 16.27 5.58 18.84 6.28 20.72 8.16 21.42 10.73 20.72 13.31 19.78 14.30L18.28 15.80Q18.33 14.53 17.91 13.36L18.38 12.89Q19.27 12.00 19.27 9.52 17.48 7.73 15.00 7.73 14.11 8.62L10.59 12.19Q9.70 13.03 9.70 15.52 10.59 16.41ZM13.41 12.19Q13.69 11.86 14.53 11.86 14.81 12.19Q15.80 13.12 16.45 15.70 15.80 18.28 14.81 19.22L11.30 22.78Q10.31 23.72 7.73 24.42 5.16 23.72 3.28 21.84 2.58 19.27 3.28 16.69 4.22 15.70L5.72 14.20Q5.67 15.47 6.09 16.64L5.62 17.11Q4.73 18.00 4.73 20.48 6.52 22.27 9.00 22.27 9.89 21.38L13.41 17.81Q14.30 16.97 14.30 14.48 13.41 13.59Q13.12 13.31 13.12 12.47 13.41 12.19Z"/></svg>
