<svg xmlns="http://www.w3.org/2000/svg" viewBox="0 0 24 24"><path d="M16.50 9.00L16.50 20.48Q16.50 22.17 14.16 24.52 10.83 24.52 8.48 22.17 8.48 20.48L8.48 8.02Q8.48 6.98 9.98 5.48 12.05 5.48 13.50 6.98 13.50 8.02L13.50 18.52Q13.50 18.94 12.94 19.50 12.09 19.50 11.48 18.94 11.48 18.52L11.48 9.00L9.98 9.00L9.98 18.52Q9.98 19.55 11.48 21.00 13.55 21.00 15.00 19.55 15.00 18.52L15.00 8.02Q15.00 6.33 12.66 3.98 9.33 3.98 6.98 6.33 6.98 8.02L6.98 20.48Q6.98 21.61 7.83 23.62 9.38 25.17 11.39 26.02 12.52 26.02Q14.02 26.02 16.50 24.52 18.00 21.98 18.00 20.48L18.00 9.00Z"/></svg>
