<svg xmlns="http://www.w3.org/2000/svg" viewBox="0 0 24 24"><path d="M3.00 14.02L5.02 14.02L5.02 15.98L3.00 15.98ZM11.02 8.02L12.98 8.02L12.98 12.00L11.02 12.00ZM9.00 14.02L12.98 14.02L12.98 18.00L11.02 18.00L11.02 15.98L9.00 15.98ZM15.00 14.02L17.02 14.02L17.02 15.98L18.98 15.98L18.98 14.02L21.00 14.02L21.00 15.98L18.98 15.98L18.98 18.00L21.00 18.00L21.00 21.98L18.98 21.98L18.98 24.00L17.02 24.00L17.02 21.98L12.98 21.98L12.98 24.00L11.02 24.00L11.02 20.02L15.00 20.02L15.00 18.00L17.02 18.00L17.02 15.98L15.00 15.98ZM18.98 21.98L18.98 18.00L17.02 18.00L17.02 21.98ZM15.00 6.00L21.00 6.00L21.00 12.00L15.00 12.00ZM17.02 8.02L17.02 9.98L18.98 9.98L18.98 8.02ZM3.00 6.00L9.00 6.00L9.00 12.00L3.00 12.00ZM5.02 8.02L5.02 9.98L6.98 9.98L6.98 8.02ZM3.00 18.00L9.00 18.00L9.00 24.00L3.00 24.00ZM5.02 20.02L5.02 21.98L6.98 21.98L6.98 20.02Z"/></svg>
