<svg xmlns="http://www.w3.org/2000/svg" viewBox="0 0 24 24"><path d="M12.98 14.02Q14.25 14.02 15.98 12.23 15.98 9.75 14.25 8.02 11.77 8.02 9.98 9.75 9.98 12.23 11.77 14.02 12.98 14.02ZM12.98 9.98Q13.31 9.98 13.83 10.36 14.06 10.88 13.92 11.48 13.50 11.91 12.89 12.05 12.33 11.81 12.00 11.30 12.00 11.02Q12.00 10.59 12.56 9.98 12.98 9.98ZM17.11 13.88Q18.00 12.56 18.00 9.42 17.11 8.16Q17.53 8.02 18.00 8.02Q19.27 8.02 21.00 9.75 21.00 12.23 19.27 14.02 18.00 14.02Q17.53 14.02 17.11 13.88ZM12.98 15.98Q11.30 15.98 10.08 16.41Q9.00 16.78 8.30 17.39Q7.73 17.91 7.41 18.61Q7.12 19.08 7.03 19.59L6.98 20.02L6.98 21.98L18.98 21.98L18.98 20.02L18.94 19.59Q18.84 19.08 18.61 18.61Q18.28 17.91 17.72 17.39Q16.97 16.78 15.94 16.41Q14.67 15.98 12.98 15.98ZM9.00 20.02Q9.00 19.69 9.23 19.36Q9.56 18.80 10.31 18.47Q11.34 18.00 12.98 18.00Q15.23 18.00 16.31 18.84Q16.92 19.31 17.02 20.02ZM24.00 20.02L24.00 21.98L21.00 21.98L21.00 20.02Q20.95 18.89 20.02 16.83 19.22 16.08Q20.86 16.22 21.98 16.88Q22.88 17.39 23.39 18.23Q23.77 18.80 23.91 19.45ZM8.02 15.00L0.00 15.00L0.00 12.98L8.02 12.98Z"/></svg>
