<svg xmlns="http://www.w3.org/2000/svg" viewBox="0 0 24 24"><path d="M21.80 18.42L19.31 22.73Q18.94 23.39 17.72 24.05 17.02 24.00L15.00 24.00L15.00 26.02L12.52 21.52L15.00 17.02L15.00 18.98L17.81 18.98L15.61 15.14L19.92 12.66L21.75 15.75Q22.12 16.36 22.17 17.81 21.80 18.42ZM9.19 6.05L14.20 6.05Q14.95 6.05 16.12 6.84 16.45 7.45L17.44 9.19L19.17 8.20L16.55 12.61L11.39 12.70L13.12 11.67L11.72 9.23L9.52 13.08L5.16 10.59L6.94 7.45Q7.27 6.84 8.48 6.05 9.19 6.05ZM5.06 22.78L2.53 18.42Q2.20 17.81 2.25 16.36 2.62 15.80L3.66 14.06L1.92 13.08L7.03 13.12L9.70 17.58L7.97 16.55L6.56 18.98L11.02 18.98L11.02 24.00L7.41 24.00Q6.70 24.05 5.44 23.39 5.06 22.78Z"/></svg>
