<svg xmlns="http://www.w3.org/2000/svg" viewBox="0 0 24 24"><path d="M12.00 6.98Q13.59 6.98 16.50 8.20 17.58 9.28Q19.12 10.83 20.20 14.95 19.12 19.08 17.58 20.58Q16.31 21.98 14.48 22.59Q12.75 23.16 10.92 22.92L11.39 20.91Q12.70 21.05 15.23 20.16 16.22 19.22Q17.34 18.05 18.14 15.00 17.34 11.86 16.22 10.69Q15.38 9.89 13.12 9.00 12.00 9.00L12.00 13.59L6.98 8.58L12.00 3.61ZM6.28 20.58Q4.36 18.66 3.75 13.27 5.11 10.92L6.61 12.42Q5.77 14.06 6.38 17.86 7.78 19.22Q8.53 19.97 9.61 20.39L9.00 22.41Q7.50 21.80 6.28 20.58Z"/></svg>
