<svg xmlns="http://www.w3.org/2000/svg" viewBox="0 0 24 24"><path d="M11.02 9.00L14.02 9.00L17.30 5.72Q17.58 5.39 18.42 5.39 18.70 5.72L21.28 8.30Q21.56 8.58 21.56 9.42 21.28 9.70L18.98 12.00L11.02 12.00L11.02 14.02Q11.02 14.44 10.41 15.00 9.56 15.00 9.00 14.44 9.00 14.02L9.00 11.02Q9.00 10.17 10.17 9.00 11.02 9.00ZM5.02 14.02L5.02 18.00L2.72 20.30Q2.44 20.58 2.44 21.42 2.72 21.70L5.30 24.28Q5.58 24.56 6.42 24.56 6.70 24.28L11.02 20.02L15.00 20.02Q15.42 20.02 15.98 19.41 15.98 18.98L15.98 18.00L17.02 18.00Q17.44 18.00 18.00 17.44 18.00 17.02L18.00 15.98L18.98 15.98Q19.41 15.98 20.02 15.42 20.02 15.00L20.02 14.02L12.98 14.02L12.98 15.00Q12.98 15.84 11.81 17.02 11.02 17.02L9.00 17.02Q8.16 17.02 6.98 15.84 6.98 15.00L6.98 12.00Z"/></svg>
