<svg xmlns="http://www.w3.org/2000/svg" viewBox="0 0 24 24"><path d="M5.02 6.00Q4.17 6.00 3.00 7.17 3.00 8.02L5.02 8.02ZM6.98 6.00L6.98 8.02L9.00 8.02L9.00 6.00ZM11.02 6.00L11.02 8.02L12.98 8.02L12.98 6.00ZM15.00 6.00L15.00 8.02L17.02 8.02L17.02 6.00ZM18.98 6.00L18.98 8.02L21.00 8.02Q21.00 7.17 19.83 6.00 18.98 6.00ZM3.00 9.98L3.00 12.00L5.02 12.00L5.02 9.98ZM6.98 9.98L6.98 14.02L11.02 14.02L11.02 9.98ZM12.98 9.98L12.98 14.02L17.02 14.02L17.02 9.98ZM18.98 9.98L18.98 12.00L21.00 12.00L21.00 9.98ZM3.00 14.02L3.00 15.98L5.02 15.98L5.02 14.02ZM18.98 14.02L18.98 15.98L21.00 15.98L21.00 14.02ZM6.98 15.98L6.98 20.02L11.02 20.02L11.02 15.98ZM12.98 15.98L12.98 20.02L17.02 20.02L17.02 15.98ZM3.00 18.00L3.00 20.02L5.02 20.02L5.02 18.00ZM18.98 18.00L18.98 20.02L21.00 20.02L21.00 18.00ZM3.00 21.98Q3.00 22.83 4.17 24.00 5.02 24.00L5.02 21.98ZM6.98 21.98L6.98 24.00L9.00 24.00L9.00 21.98ZM11.02 21.98L11.02 24.00L12.98 24.00L12.98 21.98ZM15.00 21.98L15.00 24.00L17.02 24.00L17.02 21.98ZM18.98 21.98L18.98 24.00Q19.83 24.00 21.00 22.83 21.00 21.98Z"/></svg>
