<svg xmlns="http://www.w3.org/2000/svg" viewBox="0 0 24 24"><path d="M15.52 15.00Q17.39 15.00 20.02 17.62 20.02 19.50Q20.02 20.81 19.31 21.89L22.41 24.98L21.00 26.39L17.86 23.30Q16.78 24.00 15.52 24.00Q13.64 24.00 11.02 21.38 11.02 17.62 13.64 15.00 15.52 15.00ZM15.52 17.02Q14.48 17.02 12.98 18.47 12.98 20.53 14.48 21.98 16.55 21.98 18.00 20.53 18.00 18.47 16.55 17.02 15.52 17.02ZM6.98 18.00L6.98 20.02L9.00 20.02Q9.19 22.31 10.83 24.00L5.02 24.00Q4.17 24.00 3.00 22.83 3.00 21.98L3.00 8.02Q3.00 7.17 4.17 6.00 5.02 6.00L18.98 6.00Q19.83 6.00 21.00 7.17 21.00 8.02L21.00 16.03Q20.11 14.62 17.20 12.98 15.52 12.98Q13.64 12.98 12.05 14.02L6.98 14.02L6.98 15.98L9.98 15.98Q9.42 16.97 9.19 18.00ZM17.02 12.00L17.02 9.98L6.98 9.98L6.98 12.00Z"/></svg>
