<svg xmlns="http://www.w3.org/2000/svg" viewBox="0 0 24 24"><path d="M21.98 17.02L21.98 24.98L20.02 24.98L20.02 21.00L15.98 24.98L15.98 21.98L11.02 21.98L11.02 20.02L15.98 20.02L15.98 17.02L20.02 21.00L20.02 17.02ZM5.02 21.98L9.00 21.98L9.00 24.00L5.02 24.00Q4.17 24.00 3.00 22.83 3.00 21.98L3.00 8.02Q3.00 7.17 4.17 6.00 5.02 6.00L6.00 6.00L6.00 3.98L8.02 3.98L8.02 6.00L15.98 6.00L15.98 3.98L18.00 3.98L18.00 6.00L18.98 6.00Q19.83 6.00 21.00 7.17 21.00 8.02L21.00 15.00L18.98 15.00L18.98 11.02L5.02 11.02Z"/></svg>
