<svg xmlns="http://www.w3.org/2000/svg" viewBox="0 0 24 24"><path d="M18.98 5.02L14.02 9.52L14.02 20.48L18.98 15.98ZM6.52 8.02Q4.92 8.02 3.56 8.34Q2.02 8.72 0.98 9.52L0.98 24.14Q0.98 24.33 1.31 24.66 1.50 24.66L1.73 24.61Q2.77 24.09 5.39 23.48 6.52 23.48Q8.11 23.48 9.42 23.86Q10.97 24.23 12.00 24.98Q12.98 24.38 16.22 23.48 17.48 23.48Q20.25 23.48 22.27 24.56Q22.31 24.61 22.45 24.61L22.50 24.61Q22.69 24.61 23.02 24.28 23.02 24.09L23.02 9.52Q22.22 8.91 21.00 8.48L21.00 21.98Q19.41 21.52 17.48 21.52Q16.22 21.52 12.98 22.36 12.00 23.02L12.00 9.52Q10.97 8.72 9.42 8.34Q8.11 8.02 6.52 8.02Z"/></svg>
