<svg xmlns="http://www.w3.org/2000/svg" viewBox="0 0 24 24"><path d="M11.81 12.00L15.00 15.14L15.00 15.00Q15.00 13.73 13.27 12.00 12.00 12.00ZM7.55 12.80L9.09 14.34Q9.00 14.67 9.00 15.00Q9.00 16.27 10.73 18.00 12.00 18.00Q12.33 18.00 12.66 17.91L14.20 19.45Q13.12 20.02 12.00 20.02Q10.64 20.02 8.34 18.66 6.98 16.36 6.98 15.00Q6.98 13.88 7.55 12.80ZM2.02 7.27L4.27 9.56L4.73 9.98Q2.16 12.05 0.98 15.00Q2.30 18.33 8.30 22.50 12.00 22.50Q14.30 22.50 16.36 21.66L19.73 24.98L21.00 23.72L3.28 6.00ZM12.00 9.98Q13.36 9.98 15.66 11.34 17.02 13.64 17.02 15.00Q17.02 15.94 16.64 16.83L19.55 19.73Q21.89 17.81 23.02 15.00Q21.70 11.67 15.70 7.50 12.00 7.50Q9.94 7.50 8.02 8.20L10.17 10.36Q11.06 9.98 12.00 9.98Z"/></svg>
