<svg xmlns="http://www.w3.org/2000/svg" viewBox="0 0 24 24"><path d="M15.00 6.98Q13.36 6.98 11.02 9.33 11.02 12.66 13.36 15.00 16.64 15.00 18.98 12.66 18.98 9.33 16.64 6.98 15.00 6.98ZM15.00 8.91Q15.89 8.91 17.11 10.12 17.11 11.86 15.89 13.08 14.11 13.08 12.89 11.86 12.89 10.12 14.11 8.91 15.00 8.91ZM0.98 12.98L0.98 15.00L9.00 15.00L9.00 12.98ZM15.00 15.98Q13.50 15.98 11.72 16.45Q9.70 16.97 8.48 17.77Q6.98 18.75 6.98 20.02L6.98 23.02L23.02 23.02L23.02 20.02Q23.02 18.75 21.52 17.77Q20.30 16.97 18.28 16.45Q16.50 15.98 15.00 15.98ZM15.00 17.91Q16.41 17.91 17.91 18.28Q19.22 18.66 21.09 19.69 21.09 20.02L21.09 21.09L8.91 21.09L8.91 20.02Q8.91 19.69 10.78 18.66 12.09 18.28Q13.59 17.91 15.00 17.91Z"/></svg>
