<svg xmlns="http://www.w3.org/2000/svg" viewBox="0 0 24 24"><path d="M6.98 9.98L11.02 9.98L11.02 12.00L6.98 12.00Q5.77 12.00 3.98 13.73 3.98 16.27 5.77 18.00 6.98 18.00L11.02 18.00L11.02 20.02L6.98 20.02Q5.62 20.02 3.33 18.66 2.02 16.36 2.02 13.64 3.33 11.34 5.62 9.98 6.98 9.98ZM17.02 9.98Q18.38 9.98 20.67 11.34 21.98 13.64 21.98 15.00L20.02 15.00Q20.02 13.73 18.23 12.00 17.02 12.00L12.98 12.00L12.98 9.98ZM8.02 14.02L15.98 14.02L15.98 15.98L8.02 15.98ZM17.02 15.00L18.98 15.00L18.98 18.00L21.98 18.00L21.98 20.02L18.98 20.02L18.98 23.02L17.02 23.02L17.02 20.02L14.02 20.02L14.02 18.00L17.02 18.00Z"/></svg>
