<svg xmlns="http://www.w3.org/2000/svg" viewBox="0 0 24 24"><path d="M21.70 23.30L20.30 24.70Q20.02 24.98 19.17 24.98 18.89 24.70L6.98 12.84Q6.52 12.98 6.00 12.98Q5.02 12.98 3.33 12.09 2.20 10.55 1.92 8.62 2.20 7.69L4.78 10.22L7.22 7.78L4.69 5.20Q5.62 4.92 7.55 5.20 9.09 6.33 9.98 8.02 9.98 9.00Q9.98 9.52 9.84 9.98L21.70 21.89Q21.98 22.17 21.98 23.02 21.70 23.30ZM2.30 21.89Q2.02 22.17 2.02 23.02 2.30 23.30L3.70 24.70Q3.98 24.98 4.83 24.98 5.11 24.70L10.59 19.27L7.78 16.41ZM20.02 5.02L15.98 6.98L15.98 9.00L13.83 11.16L15.84 13.17L18.00 11.02L20.02 11.02L21.98 6.98Z"/></svg>
