<svg xmlns="http://www.w3.org/2000/svg" viewBox="0 0 24 24"><path d="M3.98 5.02Q3.19 5.02 2.02 6.19 2.02 6.98L2.02 18.98Q2.02 19.83 3.19 21.00 3.98 21.00L8.02 21.00L8.02 24.00Q8.02 24.42 8.58 24.98 9.00 24.98L9.52 24.98Q9.89 24.98 10.22 24.70L13.92 21.00L20.02 21.00Q20.81 21.00 21.98 19.83 21.98 18.98L21.98 6.98Q21.98 6.19 20.81 5.02 20.02 5.02ZM3.98 6.98L20.02 6.98L20.02 18.98L13.08 18.98L9.98 22.08L9.98 18.98L3.98 18.98ZM12.19 8.48Q10.88 8.48 9.19 9.61 9.28 10.69L4.69 10.69L11.25 10.69Q11.25 10.27 11.81 9.84 12.19 9.84Q12.70 9.84 13.22 10.36 13.22 11.20 12.75 11.86 12.38 12.09Q11.62 12.52 11.02 13.27 11.02 14.02L12.98 14.02Q12.98 13.59 13.27 13.08 13.64 12.84Q14.34 12.52 15.23 11.44 15.23 10.78Q15.23 9.75 13.59 8.48 12.19 8.48ZM11.02 15.00L11.02 17.02L12.98 17.02L12.98 15.00Z"/></svg>
