<svg xmlns="http://www.w3.org/2000/svg" viewBox="0 0 24 24"><path d="M20.02 6.00L5.02 6.00Q4.17 6.00 3.00 7.17 3.00 8.02L3.00 14.02L6.98 14.02L6.98 12.00L11.02 15.00L6.98 18.00L6.98 15.98L3.00 15.98L3.00 21.98Q3.00 22.83 4.17 24.00 5.02 24.00L20.02 24.00Q20.81 24.00 21.98 22.83 21.98 21.98L21.98 8.02Q21.98 7.17 20.81 6.00 20.02 6.00ZM17.02 20.02L12.98 20.02L12.98 18.00L17.02 18.00ZM20.02 15.98L12.98 15.98L12.98 14.02L20.02 14.02ZM20.02 12.00L12.98 12.00L12.98 9.98L20.02 9.98ZM3.00 15.98L0.00 15.98L0.00 14.02L3.00 14.02Z"/></svg>
