<svg xmlns="http://www.w3.org/2000/svg" viewBox="0 0 24 24"><path d="M12.00 18.52Q10.55 18.52 8.48 16.45 8.48 13.55 10.55 11.48 13.45 11.48 15.52 13.55 15.52 16.45 13.45 18.52 12.00 18.52ZM19.45 15.98Q19.50 15.42 19.50 14.58 19.45 14.02L21.56 12.38Q21.70 12.23 21.75 11.91 21.66 11.72L19.64 8.25Q19.59 8.11 19.22 7.97 19.03 8.06L16.55 9.05Q15.70 8.39 14.86 8.06L14.48 5.44Q14.48 5.25 14.20 5.02 14.02 5.02L9.98 5.02Q9.80 5.02 9.52 5.25 9.52 5.44L9.14 8.06Q8.30 8.39 7.45 9.05L4.97 8.06Q4.78 7.97 4.41 8.11 4.36 8.25L2.34 11.72Q2.25 11.91 2.30 12.23 2.44 12.38L4.55 14.02Q4.50 14.58 4.50 15.42 4.55 15.98L2.44 17.62Q2.30 17.77 2.25 18.09 2.34 18.28L4.36 21.75Q4.41 21.89 4.78 22.03 4.97 21.94L7.45 20.95Q8.30 21.61 9.14 21.94L9.52 24.56Q9.52 24.75 9.80 24.98 9.98 24.98L14.02 24.98Q14.20 24.98 14.48 24.75 14.48 24.56L14.86 21.94Q15.75 21.56 16.55 20.95L19.03 21.94Q19.22 22.03 19.59 21.89 19.64 21.75L21.66 18.28Q21.75 18.09 21.70 17.77 21.56 17.62Z"/></svg>
