<svg xmlns="http://www.w3.org/2000/svg" viewBox="0 0 24 24"><path d="M7.50 21.00Q6.42 21.00 4.41 20.16 2.86 18.61 2.02 16.59 2.02 15.52Q2.02 14.02 3.47 11.48 6.00 9.98 7.50 9.98L18.00 9.98Q19.64 9.98 21.98 12.33 21.98 15.66 19.64 18.00 18.00 18.00L9.52 18.00Q8.48 18.00 6.98 16.55 6.98 14.48 8.48 12.98 9.52 12.98L17.02 12.98L17.02 14.48L9.52 14.48Q9.09 14.48 8.48 15.09 8.48 15.94 9.09 16.50 9.52 16.50L18.00 16.50Q19.03 16.50 20.48 15.05 20.48 12.98 19.03 11.48 18.00 11.48L7.50 11.48Q5.86 11.48 3.52 13.83 3.52 17.16 5.86 19.50 7.50 19.50L17.02 19.50L17.02 21.00Z"/></svg>
