<svg xmlns="http://www.w3.org/2000/svg" viewBox="0 0 24 24"><path d="M11.02 12.98L11.02 15.00L9.00 15.00L9.00 17.02L6.98 17.02L6.98 15.00L5.81 15.00Q5.48 15.89 3.98 17.02 3.00 17.02Q1.73 17.02 0.00 15.28 0.00 12.70 1.73 11.02 3.00 11.02Q3.98 11.02 5.48 12.09 5.81 12.98ZM3.00 12.98Q2.53 12.98 2.02 13.55 2.02 14.44 2.53 15.00 3.47 15.00 3.98 14.44 3.98 13.55 3.47 12.98 3.00 12.98ZM15.98 17.02Q17.48 17.02 19.27 17.44Q21.28 17.95 22.55 18.75Q24.00 19.73 24.00 21.00L24.00 23.02L8.02 23.02L8.02 21.00Q8.02 19.73 9.47 18.75Q10.73 17.95 12.70 17.44Q14.48 17.02 15.98 17.02ZM15.98 15.00Q14.34 15.00 12.00 12.66 12.00 9.33 14.34 6.98 17.67 6.98 20.02 9.33 20.02 12.66 17.67 15.00 15.98 15.00Z"/></svg>
