<svg xmlns="http://www.w3.org/2000/svg" viewBox="0 0 24 24"><path d="M16.36 17.02Q16.50 15.84 16.50 14.16 16.36 12.98L19.73 12.98Q20.02 14.06 20.02 15.94 19.73 17.02ZM14.58 22.55Q15.47 20.91 15.98 18.98L18.94 18.98Q18.19 20.25 15.98 22.08 14.58 22.55ZM14.34 17.02L9.66 17.02Q9.52 15.94 9.52 14.06 9.66 12.98L14.34 12.98Q14.48 14.16 14.48 15.84 14.34 17.02ZM12.00 22.97Q10.69 21.05 10.08 18.98L13.92 18.98Q13.31 21.05 12.00 22.97ZM8.02 11.02L5.06 11.02Q5.81 9.75 8.02 7.92 9.42 7.45Q8.58 9.00 8.02 11.02ZM5.06 18.98L8.02 18.98Q8.58 21.00 9.42 22.55Q8.02 22.08 5.81 20.25 5.06 18.98ZM4.27 17.02Q3.98 15.94 3.98 14.06 4.27 12.98L7.64 12.98Q7.50 14.16 7.50 15.84 7.64 17.02ZM12.00 7.03Q13.31 8.95 13.92 11.02L10.08 11.02Q10.69 8.95 12.00 7.03ZM18.94 11.02L15.98 11.02Q15.47 9.09 14.58 7.45Q15.98 7.92 18.19 9.75 18.94 11.02ZM12.00 5.02Q9.28 5.02 4.69 7.69 2.02 12.28 2.02 15.00Q2.02 16.97 3.52 20.67 6.33 23.48 10.03 24.98 13.97 24.98 17.67 23.48 20.48 20.67 21.98 16.97 21.98 13.03 20.48 9.33 17.67 6.52 13.97 5.02 12.00 5.02Z"/></svg>
