<svg xmlns="http://www.w3.org/2000/svg" viewBox="0 0 24 24"><path d="M12.00 11.02Q13.64 11.02 15.98 13.36 15.98 16.64 13.64 18.98 10.36 18.98 8.02 16.64 8.02 13.36 10.36 11.02 12.00 11.02ZM12.00 12.98Q11.16 12.98 9.98 14.16 9.98 15.84 11.16 17.02 12.84 17.02 14.02 15.84 14.02 14.16 12.84 12.98 12.00 12.98ZM9.98 24.98Q9.80 24.98 9.52 24.75 9.52 24.56L9.14 21.94Q8.30 21.61 7.45 20.95L4.97 21.94Q4.78 22.03 4.41 21.89 4.36 21.75L2.34 18.28Q2.25 18.09 2.30 17.77 2.44 17.62L4.55 15.98L4.50 15.00L4.55 14.02L2.44 12.38Q2.30 12.23 2.25 11.91 2.34 11.72L4.36 8.25Q4.41 8.11 4.78 7.97 4.97 8.06L7.45 9.05Q8.30 8.39 9.14 8.06L9.52 5.44Q9.52 5.25 9.80 5.02 9.98 5.02L14.02 5.02Q14.20 5.02 14.48 5.25 14.48 5.44L14.86 8.06Q15.70 8.39 16.55 9.05L19.03 8.06Q19.22 7.97 19.59 8.11 19.64 8.25L21.66 11.72Q21.75 11.91 21.70 12.23 21.56 12.38L19.45 14.02L19.50 15.00L19.45 15.98L21.56 17.62Q21.70 17.77 21.75 18.09 21.66 18.28L19.64 21.75Q19.59 21.89 19.22 22.03 19.03 21.94L16.55 20.95Q15.70 21.61 14.86 21.94L14.48 24.56Q14.48 24.75 14.20 24.98 14.02 24.98ZM11.25 6.98L10.88 9.61Q9.05 9.98 7.83 11.39L5.44 10.36L4.69 11.67L6.80 13.22Q6.19 15.00 6.80 16.78L4.69 18.38L5.44 19.64L7.88 18.61Q9.09 20.02 10.88 20.39L11.25 23.02L12.75 23.02L13.12 20.39Q14.91 20.02 16.12 18.61L18.56 19.64L19.31 18.38L17.20 16.83Q17.81 15.00 17.20 13.22L19.31 11.67L18.56 10.36L16.17 11.39Q14.95 9.98 13.12 9.61L12.75 6.98Z"/></svg>
