<svg xmlns="http://www.w3.org/2000/svg" viewBox="0 0 24 24"><path d="M9.98 6.98Q8.34 6.98 6.00 9.33 6.00 12.66 8.34 15.00 11.67 15.00 14.02 12.66 14.02 9.33 11.67 6.98 9.98 6.98ZM17.48 15.98Q15.61 15.98 12.98 18.61 12.98 22.36 15.61 24.98 19.36 24.98 21.98 22.36 21.98 18.61 19.36 15.98 17.48 15.98ZM9.98 17.02Q7.83 17.02 4.17 18.09 2.02 19.92 2.02 21.00L2.02 23.02L11.48 23.02Q11.02 21.80 11.02 20.48Q11.02 18.70 11.95 17.16Q10.83 17.02 9.98 17.02ZM17.48 17.48Q18.75 17.48 20.48 19.27 20.48 20.48Q20.48 21.33 20.06 21.98L15.98 17.91Q16.64 17.48 17.48 17.48ZM14.91 18.98L18.98 23.06Q18.33 23.48 17.48 23.48Q16.27 23.48 14.48 21.75 14.48 20.48Q14.48 19.64 14.91 18.98Z"/></svg>
