<svg xmlns="http://www.w3.org/2000/svg" viewBox="0 0 24 24"><path d="M2.02 15.00Q2.02 17.72 4.69 22.31 9.28 24.98 14.72 24.98 19.31 22.31 21.98 17.72 21.98 12.28 19.31 7.69 14.72 5.02 12.00 5.02Q10.03 5.02 6.33 6.52 3.52 9.33 2.02 13.03 2.02 15.00ZM15.61 16.73Q15.98 15.89 15.98 15.00Q15.98 13.36 13.64 11.02 12.00 11.02L12.00 12.98L8.86 9.98L12.00 6.98L12.00 9.00Q13.64 9.00 16.41 10.59 18.00 13.36 18.00 16.73 17.06 18.19ZM6.00 15.00Q6.00 13.27 6.94 11.81L8.39 13.27Q8.02 14.11 8.02 15.00Q8.02 16.64 10.36 18.98 12.00 18.98L12.00 17.02L15.00 20.02L12.00 23.02L12.00 21.00Q10.36 21.00 7.59 19.41 6.00 16.64 6.00 15.00Z"/></svg>
