<svg xmlns="http://www.w3.org/2000/svg" viewBox="0 0 24 24"><path d="M13.12 25.17L11.48 21.38Q13.73 20.53 15.89 19.08ZM5.62 15.52L1.83 13.88L7.92 11.11Q6.47 13.27 5.62 15.52ZM21.61 5.39Q21.33 5.30 21.05 5.20Q20.34 5.02 19.50 5.02Q18.38 4.97 17.20 5.25Q15.70 5.58 14.30 6.38Q12.56 7.36 11.02 8.95Q8.25 11.67 6.66 15.66Q6.42 16.22 6.70 17.34 7.12 17.77L9.23 19.88Q9.66 20.30 10.78 20.58 11.34 20.34Q15.19 18.89 18.05 15.98Q19.64 14.44 20.62 12.70Q21.42 11.30 21.75 9.80Q22.03 8.62 21.98 7.50Q21.98 6.66 21.80 5.95ZM14.53 12.47Q13.97 11.86 13.97 10.22 15.14 9.05 16.78 9.05 17.95 10.22 17.95 11.86 16.78 13.03 15.14 13.03 14.53 12.47ZM8.86 19.55L7.45 18.14ZM6.23 24.98L9.89 21.38Q9.38 21.23 8.91 20.91L4.83 24.98ZM2.02 24.98L3.42 24.98L8.20 20.25L6.75 18.84L2.02 23.58ZM2.02 22.17L6.09 18.09Q5.77 17.62 5.62 17.11L2.02 20.77Z"/></svg>
