<svg xmlns="http://www.w3.org/2000/svg" viewBox="0 0 24 24"><path d="M9.98 24.00L14.02 24.00Q14.02 24.84 12.84 26.02 11.16 26.02 9.98 24.84 9.98 24.00ZM21.00 21.98L21.00 23.02L3.00 23.02L3.00 21.98L5.02 20.02L5.02 14.02Q5.02 11.67 7.78 7.97 9.98 7.31L9.98 6.98Q9.98 6.19 11.16 5.02 12.84 5.02 14.02 6.19 14.02 6.98L14.02 7.31Q16.22 7.97 18.98 11.67 18.98 14.02L18.98 20.02ZM17.02 14.02Q17.02 12.66 15.66 10.36 13.36 9.00 10.64 9.00 8.34 10.36 6.98 12.66 6.98 14.02L6.98 21.00L17.02 21.00ZM19.73 6.19L18.33 7.59Q19.59 8.86 21.00 12.19 21.00 14.02L23.02 14.02Q23.02 11.81 21.33 7.73 19.73 6.19ZM0.98 14.02L3.00 14.02Q3.00 12.19 4.41 8.86 5.67 7.59L4.27 6.19Q2.67 7.73 0.98 11.81 0.98 14.02Z"/></svg>
