<svg xmlns="http://www.w3.org/2000/svg" viewBox="0 0 24 24"><path d="M3.05 15.98L0.98 15.98L0.98 14.02L3.05 14.02Q3.28 11.95 5.48 8.48 8.95 6.28 11.02 6.05L11.02 3.98L12.98 3.98L12.98 6.05Q15.05 6.28 18.52 8.48 20.72 11.95 20.95 14.02L23.02 14.02L23.02 15.98L20.95 15.98Q20.72 18.05 18.52 21.52 15.05 23.72 12.98 23.95L12.98 26.02L11.02 26.02L11.02 23.95Q8.95 23.72 5.48 21.52 3.28 18.05 3.05 15.98ZM12.00 8.02Q10.08 8.02 6.89 9.89 5.02 13.08 5.02 16.92 6.89 20.11 10.08 21.98 13.92 21.98 17.11 20.11 18.98 16.92 18.98 13.08 17.11 9.89 13.92 8.02 12.00 8.02Z"/></svg>
