<svg xmlns="http://www.w3.org/2000/svg" viewBox="0 0 24 24"><path d="M2.02 23.02L2.02 9.00L0.00 9.00L0.00 23.02Q0.00 23.81 1.17 24.98 2.02 24.98L20.02 24.98L20.02 23.02ZM21.98 6.98L14.02 6.98L12.00 5.02L6.00 5.02Q5.34 5.02 4.92 5.30L4.31 5.91Q3.98 6.33 3.98 6.98L3.98 18.98Q3.98 19.64 4.31 20.11Q4.50 20.30 4.50 20.39Q5.25 21.00 6.00 21.00L21.98 21.00Q22.83 21.00 24.00 19.83 24.00 18.98L24.00 9.00Q24.00 8.16 22.83 6.98 21.98 6.98ZM21.98 15.00L18.98 15.00L18.98 18.00L17.02 18.00L17.02 15.00L14.02 15.00L14.02 12.98L17.02 12.98L17.02 9.98L18.98 9.98L18.98 12.98L21.98 12.98Z"/></svg>
