<svg xmlns="http://www.w3.org/2000/svg" viewBox="0 0 24 24"><path d="M17.02 6.98L17.02 12.98L15.00 11.02L12.98 12.98L12.98 6.98L9.00 6.98L9.00 23.02L18.98 23.02L18.98 6.98ZM3.00 9.98L3.00 8.02L5.02 8.02L5.02 6.98Q5.02 6.19 6.19 5.02 6.98 5.02L18.98 5.02Q19.78 5.02 21.00 6.23 21.00 6.98L21.00 23.02Q21.00 23.77 19.78 24.98 18.98 24.98L6.98 24.98Q6.23 24.98 5.02 23.77 5.02 23.02L5.02 21.98L3.00 21.98L3.00 20.02L5.02 20.02L5.02 15.98L3.00 15.98L3.00 14.02L5.02 14.02L5.02 9.98ZM5.02 8.02L5.02 9.98L6.98 9.98L6.98 8.02ZM5.02 21.98L6.98 21.98L6.98 20.02L5.02 20.02ZM5.02 15.98L6.98 15.98L6.98 14.02L5.02 14.02Z"/></svg>
