<svg xmlns="http://www.w3.org/2000/svg" viewBox="0 0 24 24"><path d="M15.05 14.25L14.16 15.19Q13.55 15.80 13.31 16.31Q12.98 16.97 12.98 18.00L11.02 18.00L11.02 17.48Q11.02 15.84 12.19 14.67L13.41 13.41Q14.02 12.84 14.02 11.16 12.84 9.98 11.16 9.98 9.98 11.16 9.98 12.00L8.02 12.00Q8.02 10.36 10.36 8.02 13.64 8.02 15.98 10.36 15.98 12.00Q15.98 13.31 15.05 14.25ZM12.98 21.98L11.02 21.98L11.02 20.02L12.98 20.02ZM12.00 5.02Q10.03 5.02 6.33 6.52 3.52 9.33 2.02 13.03 2.02 16.97 3.52 20.67 6.33 23.48 10.03 24.98 13.97 24.98 17.67 23.48 20.48 20.67 21.98 16.97 21.98 15.00Q21.98 12.28 19.31 7.69 14.72 5.02 12.00 5.02Z"/></svg>
