<svg xmlns="http://www.w3.org/2000/svg" viewBox="0 0 24 24"><path d="M17.02 19.88Q17.44 19.88 18.00 20.44 18.00 21.28 17.44 21.89 16.59 21.89 15.98 21.28 15.98 20.48 16.59 19.88 17.02 19.88ZM17.02 16.88Q19.03 16.88 22.27 19.08 23.02 20.86Q22.27 22.64 19.03 24.89 15.00 24.89 11.72 22.64 11.02 20.86Q11.72 19.08 15.00 16.88 17.02 16.88ZM17.02 18.38Q15.98 18.38 14.48 19.83 14.48 21.94 15.98 23.39 18.05 23.39 19.50 21.94 19.50 19.83 18.05 18.38 17.02 18.38ZM18.00 6.00L3.98 6.00Q3.19 6.00 2.02 7.17 2.02 8.02L2.02 20.02Q2.02 20.81 3.19 21.98 3.98 21.98L9.42 21.98Q9.19 21.56 9.00 21.00Q9.19 20.44 9.42 20.02L3.98 20.02L3.98 15.98L9.98 15.98L9.98 18.98Q10.83 17.72 12.00 16.78L12.00 15.98L13.17 15.98Q14.95 15.00 17.02 15.00Q18.56 15.00 20.02 15.61L20.02 8.02Q20.02 7.17 18.84 6.00 18.00 6.00ZM9.98 14.02L3.98 14.02L3.98 9.98L9.98 9.98ZM18.00 14.02L12.00 14.02L12.00 9.98L18.00 9.98Z"/></svg>
