<svg xmlns="http://www.w3.org/2000/svg" viewBox="0 0 24 24"><path d="M18.00 9.00Q19.55 10.50 20.72 14.53 20.34 16.55Q21.00 17.67 21.00 20.34 19.64 22.64 17.34 24.00 14.67 24.00 13.55 23.34Q11.53 23.72 7.50 22.55 4.45 19.50 3.28 15.47 3.66 13.45Q3.00 12.33 3.00 9.66 4.36 7.36 6.66 6.00 9.33 6.00 10.45 6.66Q12.47 6.28 16.50 7.45 18.00 9.00ZM12.05 20.16Q14.11 20.16 16.36 18.38 16.36 16.92Q16.36 15.89 15.80 15.19Q15.09 14.30 13.59 13.97L11.62 13.55Q10.88 13.36 10.55 13.17Q9.98 12.89 9.98 11.86 10.88 11.20 12.56 11.20 13.12 11.53Q13.45 11.72 13.88 12.14Q14.11 12.47 14.30 12.56Q14.53 12.75 14.81 12.75Q15.28 12.75 15.89 12.23 15.89 11.81Q15.89 10.83 13.31 9.42 11.86 9.42Q10.17 9.42 9.05 10.12Q7.69 10.97 7.69 12.56Q7.69 13.55 8.16 14.16Q8.77 15.00 10.27 15.33L12.94 16.03Q13.97 16.27 13.97 17.11Q13.97 17.62 12.94 18.47 11.11 18.47 10.55 18.09Q10.17 17.86 9.75 17.30Q9.47 16.92 9.33 16.83Q9.05 16.59 8.25 16.59 7.69 17.16 7.69 17.58Q7.69 18.19 8.62 19.36 9.56 19.73Q10.59 20.16 12.05 20.16Z"/></svg>
