<svg xmlns="http://www.w3.org/2000/svg" viewBox="0 0 24 24"><path d="M13.50 11.02L12.00 11.02L12.00 15.98L16.27 18.56L17.02 17.34L13.50 15.23ZM12.98 6.00Q10.55 6.00 6.42 8.44 3.98 12.56 3.98 15.00L0.98 15.00L4.97 19.03L9.00 15.00L6.00 15.00Q6.00 13.08 7.88 9.89 11.11 8.02 12.98 8.02Q14.39 8.02 16.97 9.05 18.94 11.02 20.02 13.59 20.02 15.00Q20.02 16.92 18.09 20.11 14.91 21.98 12.98 21.98Q11.58 21.98 9.05 20.91 8.06 19.92L6.66 21.38Q7.88 22.59 11.16 24.00 12.98 24.00Q15.42 24.00 19.59 21.56 21.98 17.44 21.98 12.56 19.59 8.44 15.42 6.00 12.98 6.00Z"/></svg>
