<svg xmlns="http://www.w3.org/2000/svg" viewBox="0 0 24 24"><path d="M12.00 23.02Q10.08 23.02 6.89 21.09 5.02 17.91 5.02 14.11 6.89 10.88 10.08 9.00 13.92 9.00 17.11 10.88 18.98 14.11 18.98 17.91 17.11 21.09 13.92 23.02 12.00 23.02ZM12.00 6.98Q9.56 6.98 5.44 9.42 3.00 13.55 3.00 18.42 5.44 22.59 9.56 24.98 14.44 24.98 18.56 22.59 21.00 18.42 21.00 13.55 18.56 9.42 14.44 6.98 12.00 6.98ZM12.52 11.02L11.02 11.02L11.02 17.02L15.75 19.83L16.50 18.61L12.52 16.27ZM7.88 6.38L6.61 4.88L2.02 8.72L3.28 10.22ZM21.98 8.72L17.39 4.88L16.12 6.38L20.72 10.27Z"/></svg>
