<svg xmlns="http://www.w3.org/2000/svg" viewBox="0 0 24 24"><path d="M3.98 6.98L6.98 6.98L9.00 5.02L15.00 5.02L17.02 6.98L20.02 6.98Q20.81 6.98 21.98 8.16 21.98 9.00L21.98 21.00Q21.98 21.84 20.81 23.02 20.02 23.02L3.98 23.02Q3.19 23.02 2.02 21.84 2.02 21.00L2.02 9.00Q2.02 8.16 3.19 6.98 3.98 6.98ZM12.00 9.98Q10.64 9.98 8.34 11.34 6.98 13.64 6.98 16.36 8.34 18.66 10.64 20.02 13.36 20.02 15.66 18.66 17.02 16.36 17.02 13.64 15.66 11.34 13.36 9.98 12.00 9.98ZM12.00 12.00Q13.27 12.00 15.00 13.73 15.00 16.27 13.27 18.00 10.73 18.00 9.00 16.27 9.00 13.73 10.73 12.00 12.00 12.00Z"/></svg>
