<svg xmlns="http://www.w3.org/2000/svg" viewBox="0 0 24 24"><path d="M9.98 20.02Q9.19 20.02 8.02 18.84 8.02 17.16 9.19 15.98 10.83 15.98 12.00 17.16 12.00 18.84 10.83 20.02 9.98 20.02ZM15.98 23.02L15.98 12.98L3.98 12.98L3.98 23.02ZM15.98 11.02Q16.83 11.02 18.00 12.19 18.00 12.98L18.00 23.02Q18.00 23.81 16.83 24.98 15.98 24.98L3.98 24.98Q3.19 24.98 2.02 23.81 2.02 23.02L2.02 12.98Q2.02 12.19 3.19 11.02 3.98 11.02L5.02 11.02L5.02 9.00Q5.02 7.64 6.33 5.34 8.62 3.98 11.39 3.98 13.69 5.34 15.00 7.64 15.00 9.00L15.00 11.02ZM9.98 6.00Q8.72 6.00 6.98 7.73 6.98 9.00L6.98 11.02L12.98 11.02L12.98 9.00Q12.98 7.73 11.30 6.00 9.98 6.00ZM21.98 9.98L20.02 9.98L20.02 15.98L21.98 15.98ZM21.98 18.00L20.02 18.00L20.02 20.02L21.98 20.02Z"/></svg>
