<svg xmlns="http://www.w3.org/2000/svg" viewBox="0 0 24 24"><path d="M20.02 15.00Q20.02 15.84 21.19 17.02 21.98 17.02L21.98 21.00Q21.98 21.84 20.81 23.02 20.02 23.02L3.98 23.02Q3.19 23.02 2.02 21.84 2.02 21.00L2.02 17.02Q2.81 17.02 3.98 15.84 3.98 14.16 2.81 12.98 2.02 12.98L2.02 9.00Q2.02 8.16 3.19 6.98 3.98 6.98L20.02 6.98Q20.81 6.98 21.98 8.16 21.98 9.00L21.98 12.98Q21.19 12.98 20.02 14.16 20.02 15.00ZM16.50 19.27Q16.50 18.56 15.66 18.00Q14.95 17.53 13.83 17.25Q12.84 17.02 11.16 17.02 10.17 17.25Q9.05 17.53 8.34 18.00Q7.50 18.56 7.50 19.27L7.50 20.02L16.50 20.02ZM12.00 15.23Q12.94 15.23 14.25 13.92 14.25 12.05 12.94 10.73 11.06 10.73 9.75 12.05 9.75 13.92 11.06 15.23 12.00 15.23Z"/></svg>
