<svg xmlns="http://www.w3.org/2000/svg" viewBox="0 0 24 24"><path d="M18.84 9.98L16.22 9.98L10.50 6.98L3.98 10.41L3.98 20.02Q3.19 20.02 2.02 18.84 2.02 18.00L2.02 10.17Q2.02 9.19 2.81 8.81L10.50 5.02L18.05 8.81Q18.75 9.23 18.84 9.98ZM6.98 11.02L20.02 11.02Q20.81 11.02 21.98 12.19 21.98 12.98L21.98 21.98Q21.98 22.83 20.81 24.00 20.02 24.00L6.98 24.00Q6.19 24.00 5.02 22.83 5.02 21.98L5.02 12.98Q5.02 12.19 6.19 11.02 6.98 11.02ZM20.02 14.67L20.02 12.98L13.50 16.31L6.98 12.98L6.98 14.67L13.50 18.00Z"/></svg>
