<svg xmlns="http://www.w3.org/2000/svg" viewBox="0 0 24 24"><path d="M18.98 6.00L5.02 6.00Q4.17 6.00 3.00 7.17 3.00 8.02L3.00 21.98Q3.00 22.83 4.17 24.00 5.02 24.00L18.98 24.00Q19.83 24.00 21.00 22.83 21.00 21.98L21.00 8.02Q21.00 7.17 19.83 6.00 18.98 6.00ZM9.52 14.48Q9.52 15.09 8.58 15.98 8.02 15.98L6.98 15.98L6.98 18.00L5.48 18.00L5.48 12.00L8.02 12.00Q8.58 12.00 9.52 12.89 9.52 13.50ZM14.48 16.50Q14.48 17.11 13.59 18.00 12.98 18.00L10.50 18.00L10.50 12.00L12.98 12.00Q13.59 12.00 14.48 12.89 14.48 13.50ZM18.52 13.50L17.02 13.50L17.02 14.48L18.52 14.48L18.52 15.98L17.02 15.98L17.02 18.00L15.52 18.00L15.52 12.00L18.52 12.00ZM12.00 13.50L12.98 13.50L12.98 16.50L12.00 16.50ZM6.98 13.50L8.02 13.50L8.02 14.48L6.98 14.48Z"/></svg>
