<svg xmlns="http://www.w3.org/2000/svg" viewBox="0 0 24 24"><path d="M12.00 5.02Q13.27 5.02 15.00 6.75 15.00 9.23 13.27 11.02 10.73 11.02 9.00 9.23 9.00 6.75 10.73 5.02 12.00 5.02ZM12.00 12.00Q14.44 12.00 18.52 14.11 18.52 15.61L18.52 21.38Q18.52 23.06 15.89 24.19L15.89 21.98Q15.89 20.58 13.31 19.97Q12.47 19.78 12.00 19.78Q10.69 19.78 8.39 20.81 8.16 21.61Q10.17 22.41 12.00 22.41L12.98 22.31L12.98 24.94L12.00 24.98Q9.98 24.98 8.11 24.19Q5.48 23.06 5.48 21.38L5.48 15.61Q5.48 14.11 9.56 12.00 12.00 12.00ZM12.00 14.02Q11.16 14.02 9.98 15.19 9.98 16.83 11.16 18.00 12.84 18.00 14.02 16.83 14.02 15.19 12.84 14.02 12.00 14.02Z"/></svg>
