<svg xmlns="http://www.w3.org/2000/svg" viewBox="0 0 24 24"><path d="M12.00 23.02Q14.16 23.02 17.86 20.86 20.02 17.16 20.02 12.84 17.86 9.14 14.16 6.98 9.84 6.98 6.14 9.14 3.98 12.84 3.98 17.16 6.14 20.86 9.84 23.02 12.00 23.02ZM12.00 5.02Q13.97 5.02 17.67 6.52 20.48 9.33 21.98 13.03 21.98 16.97 20.48 20.67 17.67 23.48 13.97 24.98 12.00 24.98Q9.28 24.98 4.69 22.31 2.02 17.72 2.02 15.00Q2.02 13.03 3.52 9.33 6.33 6.52 10.03 5.02 12.00 5.02ZM12.52 9.98L12.52 15.23L17.02 17.91L16.27 19.17L11.02 15.98L11.02 9.98Z"/></svg>
