<svg xmlns="http://www.w3.org/2000/svg" viewBox="0 0 24 24"><path d="M0.98 3.98L0.98 8.02L2.02 8.02L2.02 21.98L0.98 21.98L0.98 26.02L5.02 26.02L5.02 24.98L18.98 24.98L18.98 26.02L23.02 26.02L23.02 21.98L21.98 21.98L21.98 8.02L23.02 8.02L23.02 3.98L18.98 3.98L18.98 5.02L5.02 5.02L5.02 3.98ZM5.02 6.98L18.98 6.98L18.98 8.02L20.02 8.02L20.02 21.98L18.98 21.98L18.98 23.02L5.02 23.02L5.02 21.98L3.98 21.98L3.98 8.02L5.02 8.02ZM6.00 9.00L6.00 17.02L9.00 17.02L9.00 21.00L18.00 21.00L18.00 12.00L14.02 12.00L14.02 9.00ZM8.02 11.02L12.00 11.02L12.00 15.00L8.02 15.00ZM14.02 14.02L15.98 14.02L15.98 18.98L11.02 18.98L11.02 17.02L14.02 17.02Z"/></svg>
