<svg xmlns="http://www.w3.org/2000/svg" viewBox="0 0 24 24"><path d="M14.02 20.02L12.00 20.02L12.00 18.00L9.98 18.00L9.98 15.98L12.00 15.98L12.00 18.00L14.02 18.00ZM14.02 12.00L12.00 12.00L12.00 14.02L14.02 14.02L14.02 15.98L12.00 15.98L12.00 14.02L9.98 14.02L9.98 12.00L12.00 12.00L12.00 9.98L9.98 9.98L9.98 8.02L12.00 8.02L12.00 9.98L14.02 9.98ZM18.98 6.00L5.02 6.00Q4.17 6.00 3.00 7.17 3.00 8.02L3.00 21.98Q3.00 22.83 4.17 24.00 5.02 24.00L18.98 24.00Q19.83 24.00 21.00 22.83 21.00 21.98L21.00 8.02Q21.00 7.17 19.83 6.00 18.98 6.00Z"/></svg>
