<svg xmlns="http://www.w3.org/2000/svg" viewBox="0 0 24 24"><path d="M6.00 14.02Q6.84 14.02 8.02 15.19 8.02 15.98L8.02 20.02L3.98 20.02Q3.19 20.02 2.02 18.84 2.02 18.00L2.02 15.98Q2.02 15.19 3.19 14.02 3.98 14.02ZM3.98 15.98L3.98 18.00L6.00 18.00L6.00 15.98ZM20.02 15.98L20.02 18.00L21.98 18.00L21.98 20.02L20.02 20.02Q19.17 20.02 18.00 18.84 18.00 18.00L18.00 15.98Q18.00 15.19 19.17 14.02 20.02 14.02L21.98 14.02L21.98 15.98ZM12.00 9.98L12.00 14.02L14.02 14.02Q14.81 14.02 15.98 15.19 15.98 15.98L15.98 18.00Q15.98 18.84 14.81 20.02 14.02 20.02L12.00 20.02Q11.16 20.02 9.98 18.84 9.98 18.00L9.98 9.98ZM12.00 18.00L14.02 18.00L14.02 15.98L12.00 15.98Z"/></svg>
