<svg xmlns="http://www.w3.org/2000/svg" viewBox="0 0 24 24"><path d="M15.00 15.98L16.50 15.98L16.50 18.80L18.94 20.25L18.19 21.52L15.00 19.69ZM18.98 11.02L5.02 11.02L5.02 21.98L9.66 21.98Q9.00 20.58 9.00 18.98Q9.00 17.11 10.88 13.88 14.11 12.00 15.98 12.00Q17.58 12.00 18.98 12.66ZM5.02 24.00Q4.17 24.00 3.00 22.83 3.00 21.98L3.00 8.02Q3.00 7.17 4.17 6.00 5.02 6.00L6.00 6.00L6.00 3.98L8.02 3.98L8.02 6.00L15.98 6.00L15.98 3.98L18.00 3.98L18.00 6.00L18.98 6.00Q19.83 6.00 21.00 7.17 21.00 8.02L21.00 14.11Q21.94 15.05 23.02 17.58 23.02 18.98Q23.02 20.91 21.09 24.09 17.91 26.02 15.98 26.02Q14.58 26.02 12.05 24.94 11.11 24.00ZM15.98 14.16Q14.67 14.16 12.47 15.47 11.16 17.67 11.16 20.30 12.47 22.55 14.67 23.86 15.98 23.86Q16.97 23.86 18.75 23.11 20.11 21.75 20.86 19.97 20.86 18.98Q20.86 17.67 19.55 15.47 17.30 14.16 15.98 14.16Z"/></svg>
