<svg xmlns="http://www.w3.org/2000/svg" viewBox="0 0 24 24"><path d="M9.98 6.98Q8.34 6.98 6.00 9.33 6.00 12.66 8.34 15.00 11.67 15.00 14.02 12.66 14.02 9.33 11.67 6.98 9.98 6.98ZM17.02 15.00Q16.78 15.00 16.73 15.19L16.55 16.55Q16.08 16.73 15.70 17.02L14.44 16.50Q14.20 16.50 14.16 16.64L13.17 18.38Q13.03 18.56 13.22 18.70L14.25 19.50Q14.25 19.73 14.25 20.25 14.25 20.48L13.22 21.33Q13.03 21.47 13.17 21.66L14.16 23.39Q14.20 23.48 14.44 23.48L15.70 23.02Q16.17 23.30 16.55 23.48L16.73 24.80Q16.78 24.98 17.02 24.98L18.98 24.98Q19.22 24.98 19.22 24.80L19.45 23.48Q19.83 23.30 20.25 23.02L21.52 23.48Q21.75 23.48 21.84 23.39L22.83 21.66Q22.92 21.47 22.78 21.33L21.70 20.48L21.75 20.02Q21.75 19.73 21.70 19.50L22.78 18.70Q22.92 18.56 22.83 18.38L21.80 16.64Q21.75 16.50 21.52 16.50L20.25 17.02Q19.78 16.64 19.41 16.55L19.22 15.19Q19.22 15.00 18.98 15.00ZM9.98 17.02Q7.83 17.02 4.17 18.09 2.02 19.92 2.02 21.00L2.02 23.02L11.67 23.02Q11.02 21.56 11.02 18.47 11.62 17.11Q10.83 17.02 9.98 17.02ZM18.00 18.52Q18.61 18.52 19.50 19.36 19.50 20.62 18.61 21.52 17.39 21.52 16.50 20.62 16.50 19.36 17.39 18.52 18.00 18.52Z"/></svg>
