<svg xmlns="http://www.w3.org/2000/svg" viewBox="0 0 24 24"><path d="M12.98 21.98Q12.98 23.62 13.83 24.98L6.00 24.98Q5.16 24.98 3.98 23.81 3.98 23.02L3.98 6.98Q3.98 6.19 5.16 5.02 6.00 5.02L6.98 5.02L6.98 12.00L9.52 10.50L12.00 12.00L12.00 5.02L18.00 5.02Q18.84 5.02 20.02 6.19 20.02 6.98L20.02 16.08Q19.41 15.98 18.98 15.98Q17.39 15.98 14.62 17.62 12.98 20.39 12.98 21.98ZM20.02 21.00L20.02 18.00L18.00 18.00L18.00 21.00L15.00 21.00L15.00 23.02L18.00 23.02L18.00 26.02L20.02 26.02L20.02 23.02L23.02 23.02L23.02 21.00Z"/></svg>
