<svg xmlns="http://www.w3.org/2000/svg" viewBox="0 0 24 24"><path d="M23.02 5.02L0.98 5.02Q0.56 5.02 0.00 5.58 0.00 6.00L0.00 24.00Q0.00 24.42 0.56 24.98 0.98 24.98L23.02 24.98Q23.44 24.98 24.00 24.42 24.00 24.00L24.00 6.00Q24.00 5.58 23.44 5.02 23.02 5.02ZM21.98 23.02L20.02 23.02L20.02 21.98L15.00 21.98L15.00 23.02L2.02 23.02L2.02 6.98L21.98 6.98ZM10.31 12.70Q10.31 12.00 11.30 11.02 12.70 11.02 13.69 12.00 13.69 13.41 12.70 14.44 11.30 14.44 10.31 13.41 10.31 12.70ZM5.72 14.30Q5.72 13.73 6.47 12.98 7.55 12.98 8.30 13.73 8.30 14.81 7.55 15.56 6.47 15.56 5.72 14.81 5.72 14.30ZM15.70 14.30Q15.70 13.73 16.45 12.98 17.53 12.98 18.28 13.73 18.28 14.81 17.53 15.56 16.45 15.56 15.70 14.81 15.70 14.30ZM20.02 18.14L20.02 18.98L3.98 18.98L3.98 18.14Q3.98 17.44 5.86 16.45 6.98 16.45Q7.83 16.45 8.58 16.73Q9.19 16.22 11.02 15.56 12.98 15.56 14.81 16.22 15.42 16.73Q16.17 16.45 17.02 16.45Q18.14 16.45 20.02 17.44 20.02 18.14Z"/></svg>
