<svg xmlns="http://www.w3.org/2000/svg" viewBox="0 0 24 24"><path d="M18.00 11.02Q18.84 11.02 20.02 12.19 20.02 12.98L20.02 23.02Q20.02 23.81 18.84 24.98 18.00 24.98L6.00 24.98Q5.16 24.98 3.98 23.81 3.98 23.02L3.98 12.98Q3.98 12.19 5.16 11.02 6.00 11.02L15.00 11.02L15.00 9.00Q15.00 7.73 13.27 6.00 10.73 6.00 9.00 7.73 9.00 9.00L6.98 9.00Q6.98 7.64 8.34 5.34 10.64 3.98 13.36 3.98 15.66 5.34 17.02 7.64 17.02 9.00L17.02 11.02ZM12.00 20.02Q12.84 20.02 14.02 18.84 14.02 17.16 12.84 15.98 11.16 15.98 9.98 17.16 9.98 18.84 11.16 20.02 12.00 20.02Z"/></svg>
