<svg xmlns="http://www.w3.org/2000/svg" viewBox="0 0 24 24"><path d="M3.98 6.00Q3.19 6.00 2.02 7.17 2.02 8.02L2.02 18.00Q2.02 18.84 3.19 20.02 3.98 20.02L12.00 20.02L12.00 24.98L15.00 21.98L18.00 24.98L18.00 20.02L20.02 20.02Q20.81 20.02 21.98 18.84 21.98 18.00L21.98 8.02Q21.98 7.17 20.81 6.00 20.02 6.00ZM12.00 8.02L15.00 9.98L18.00 8.02L18.00 11.48L21.00 12.98L18.00 14.48L18.00 18.00L15.00 15.98L12.00 18.00L12.00 14.48L9.00 12.98L12.00 11.48ZM3.98 8.02L9.00 8.02L9.00 9.98L3.98 9.98ZM3.98 12.00L6.98 12.00L6.98 14.02L3.98 14.02ZM3.98 15.98L9.00 15.98L9.00 18.00L3.98 18.00Z"/></svg>
