<svg xmlns="http://www.w3.org/2000/svg" viewBox="0 0 24 24"><path d="M20.48 14.02L18.98 14.02L18.98 9.98Q18.98 9.19 17.81 8.02 17.02 8.02L12.98 8.02L12.98 6.52Q12.98 5.48 11.53 3.98 9.47 3.98 8.02 5.48 8.02 6.52L8.02 8.02L3.98 8.02Q3.19 8.02 2.02 9.19 2.02 9.98L2.02 13.78L3.52 13.78Q4.64 13.78 6.19 15.38 6.19 17.62 4.64 19.22 3.52 19.22L2.02 19.22L2.02 23.02Q2.02 23.81 3.19 24.98 3.98 24.98L7.78 24.98L7.78 23.48Q7.78 22.36 9.38 20.81 11.62 20.81 13.22 22.36 13.22 23.48L13.22 24.98L17.02 24.98Q17.81 24.98 18.98 23.81 18.98 23.02L18.98 18.98L20.48 18.98Q21.52 18.98 23.02 17.53 23.02 15.47 21.52 14.02 20.48 14.02Z"/></svg>
