<svg xmlns="http://www.w3.org/2000/svg" viewBox="0 0 24 24"><path d="M12.00 6.00Q9.28 6.00 4.69 8.16 2.02 11.81 2.02 14.02Q2.02 15.61 3.47 18.52 4.73 19.50Q4.73 20.16 4.27 21.09Q3.52 22.45 2.02 24.00Q3.75 23.91 7.08 22.64 8.48 21.52Q10.22 21.98 12.00 21.98Q14.72 21.98 19.31 19.83 21.98 16.17 21.98 11.81 19.31 8.16 14.72 6.00 12.00 6.00ZM12.00 20.02Q9.84 20.02 6.14 18.38 3.98 15.61 3.98 12.38 6.14 9.61 9.84 8.02 14.16 8.02 17.86 9.61 20.02 12.38 20.02 15.61 17.86 18.38 14.16 20.02 12.00 20.02Z"/></svg>
