<svg xmlns="http://www.w3.org/2000/svg" viewBox="0 0 24 24"><path d="M6.98 20.02L10.22 13.22L17.02 9.98L13.78 16.78ZM12.00 14.11Q11.62 14.11 11.11 14.62 11.11 15.38 11.62 15.89 12.38 15.89 12.89 15.38 12.89 14.62 12.38 14.11 12.00 14.11ZM12.00 5.02Q13.97 5.02 17.67 6.52 20.48 9.33 21.98 13.03 21.98 16.97 20.48 20.67 17.67 23.48 13.97 24.98 10.03 24.98 6.33 23.48 3.52 20.67 2.02 16.97 2.02 13.03 3.52 9.33 6.33 6.52 10.03 5.02 12.00 5.02ZM12.00 6.98Q9.84 6.98 6.14 9.14 3.98 12.84 3.98 17.16 6.14 20.86 9.84 23.02 14.16 23.02 17.86 20.86 20.02 17.16 20.02 12.84 17.86 9.14 14.16 6.98 12.00 6.98Z"/></svg>
