<svg xmlns="http://www.w3.org/2000/svg" viewBox="0 0 24 24"><path d="M12.98 21.98Q12.98 21.61 13.08 21.00L3.98 21.00L3.98 11.02L12.00 15.98L20.02 11.02L20.02 16.08Q21.05 16.27 21.98 16.83L21.98 9.00Q21.98 8.16 20.81 6.98 20.02 6.98L3.98 6.98Q3.19 6.98 2.02 8.16 2.02 9.00L2.02 21.00Q2.02 21.84 3.19 23.02 3.98 23.02L13.08 23.02Q12.98 22.41 12.98 21.98ZM20.02 9.00L12.00 14.02L3.98 9.00ZM20.02 18.00L20.02 21.00L23.02 21.00L23.02 23.02L20.02 23.02L20.02 26.02L18.00 26.02L18.00 23.02L15.00 23.02L15.00 21.00L18.00 21.00L18.00 18.00Z"/></svg>
