<svg xmlns="http://www.w3.org/2000/svg" viewBox="0 0 24 24"><path d="M13.08 13.41Q14.02 12.09 14.02 8.91 13.08 7.59Q13.92 6.98 15.00 6.98Q16.45 6.98 18.52 9.05 18.52 11.95 16.45 14.02 15.00 14.02Q13.92 14.02 13.08 13.41ZM5.48 10.50Q5.48 9.42 6.70 7.69 8.62 6.84 10.73 7.27 12.23 8.77 12.66 10.88 11.81 12.80 10.08 14.02 9.00 14.02Q7.55 14.02 5.48 11.95 5.48 10.50ZM7.50 10.50Q7.50 11.11 8.39 12.00 9.61 12.00 10.50 11.11 10.50 9.89 9.61 9.00 8.39 9.00 7.50 9.89 7.50 10.50ZM15.98 20.02L15.98 21.98L2.02 21.98L2.02 20.02L2.06 19.59Q2.16 19.08 2.44 18.61Q2.86 17.91 3.52 17.39Q4.36 16.78 5.58 16.41Q7.03 15.98 9.00 15.98Q12.09 15.98 13.92 17.02Q15.23 17.77 15.75 18.98Q15.98 19.55 15.98 20.02ZM14.02 20.02Q13.88 19.27 12.84 18.70Q11.48 18.00 9.00 18.00Q7.31 18.00 6.09 18.38Q5.06 18.66 4.50 19.17Q4.03 19.59 3.98 20.02ZM15.94 15.98Q16.88 16.73 17.95 18.84 18.00 20.02L18.00 21.98L21.98 21.98L21.98 20.02L21.94 19.64Q21.84 19.17 21.61 18.70Q21.28 18.05 20.67 17.58Q19.97 16.92 18.89 16.55Q17.62 16.12 15.94 15.98Z"/></svg>
