<svg xmlns="http://www.w3.org/2000/svg" viewBox="0 0 24 24"><path d="M15.00 17.02Q13.50 17.02 11.72 17.44Q9.70 17.95 8.48 18.80Q6.98 19.78 6.98 21.00L6.98 23.02L23.02 23.02L23.02 21.00Q23.02 19.78 21.52 18.80Q20.30 17.95 18.28 17.44Q16.50 17.02 15.00 17.02ZM6.00 12.98L6.00 9.98L3.98 9.98L3.98 12.98L0.98 12.98L0.98 15.00L3.98 15.00L3.98 18.00L6.00 18.00L6.00 15.00L9.00 15.00L9.00 12.98ZM15.00 15.00Q16.64 15.00 18.98 12.66 18.98 9.33 16.64 6.98 13.36 6.98 11.02 9.33 11.02 12.66 13.36 15.00 15.00 15.00Z"/></svg>
