<svg xmlns="http://www.w3.org/2000/svg" viewBox="0 0 24 24"><path d="M12.00 5.02Q10.03 5.02 6.33 6.52 3.52 9.33 2.02 13.03 2.02 16.97 3.52 20.67 6.33 23.48 10.03 24.98 13.97 24.98 17.67 23.48 20.48 20.67 21.98 16.97 21.98 13.03 20.48 9.33 17.67 6.52 13.97 5.02 12.00 5.02ZM7.08 21.28Q7.41 20.62 10.55 19.50 13.45 19.50 16.59 20.62 16.92 21.28Q14.77 23.02 9.23 23.02 7.08 21.28ZM18.38 19.83Q17.39 18.66 15.19 18.00Q13.45 17.48 10.55 17.48 8.81 18.00Q6.61 18.66 5.62 19.83Q3.98 17.67 3.98 15.00Q3.98 12.84 6.14 9.14 9.84 6.98 14.16 6.98 17.86 9.14 20.02 12.84 20.02 15.00Q20.02 17.67 18.38 19.83ZM12.00 9.00Q10.55 9.00 8.48 11.06 8.48 13.97 10.55 15.98 13.45 15.98 15.52 13.97 15.52 11.06 13.45 9.00 12.00 9.00ZM12.00 14.02Q11.39 14.02 10.50 13.12 10.50 11.86 11.39 11.02 12.61 11.02 13.50 11.86 13.50 13.12 12.61 14.02 12.00 14.02Z"/></svg>
