<svg xmlns="http://www.w3.org/2000/svg" viewBox="0 0 24 24"><path d="M12.98 5.06L12.98 8.06Q14.67 8.34 17.44 10.27 18.98 13.27 18.98 15.00Q18.98 16.31 18.52 17.53L21.14 19.08Q21.98 17.11 21.98 15.00Q21.98 12.47 19.59 8.06 15.52 5.30 12.98 5.06ZM12.00 21.98Q10.08 21.98 6.89 20.11 5.02 16.92 5.02 15.00Q5.02 13.27 6.56 10.27 9.33 8.34 11.02 8.06L11.02 5.06Q8.48 5.30 4.36 8.06 2.02 12.47 2.02 15.00Q2.02 16.97 3.52 20.67 6.33 23.48 10.03 24.98 12.00 24.98Q14.44 24.98 18.66 22.83 20.06 20.91L17.44 19.36Q16.45 20.62 13.64 21.98 12.00 21.98Z"/></svg>
