<svg xmlns="http://www.w3.org/2000/svg" viewBox="0 0 24 24"><path d="M12.00 8.02Q10.55 8.02 8.48 10.03 8.48 12.94 10.55 15.00 13.45 15.00 15.52 12.94 15.52 10.03 13.45 8.02 12.00 8.02ZM12.00 9.98Q12.61 9.98 13.50 10.88 13.50 12.14 12.61 12.98 11.39 12.98 10.50 12.14 10.50 10.88 11.39 9.98 12.00 9.98ZM5.48 11.02Q4.45 11.02 3.00 12.47 3.00 13.50Q3.00 14.20 3.70 15.33 4.88 15.98 6.14 15.98 7.27 15.38 7.64 14.81Q6.52 13.36 6.52 11.48L6.52 11.20Q6.05 11.02 5.48 11.02ZM18.52 11.02Q17.95 11.02 17.48 11.20L17.48 11.48Q17.48 13.36 16.36 14.81Q16.55 15.05 17.06 15.56 17.30 15.70Q17.86 15.98 19.12 15.98 20.30 15.33 21.00 14.20 21.00 13.50Q21.00 12.47 19.55 11.02 18.52 11.02ZM12.00 17.02Q10.69 17.02 9.14 17.39Q7.41 17.81 6.28 18.56Q5.02 19.41 5.02 20.48L5.02 21.98L18.98 21.98L18.98 20.48Q18.98 19.41 17.72 18.56Q16.59 17.81 14.86 17.39Q13.31 17.02 12.00 17.02ZM4.69 17.53Q2.95 17.77 1.64 18.47Q0.00 19.31 0.00 20.48L0.00 21.98L3.00 21.98L3.00 20.06Q3.00 18.66 4.69 17.53ZM19.31 17.53Q21.00 18.66 21.00 20.06L21.00 21.98L24.00 21.98L24.00 20.48Q24.00 19.31 22.36 18.47Q21.05 17.77 19.31 17.53ZM12.00 18.98Q13.08 18.98 14.30 19.31Q15.42 19.59 16.22 20.02L7.78 20.02Q8.58 19.59 9.70 19.31Q10.92 18.98 12.00 18.98Z"/></svg>
