<svg xmlns="http://www.w3.org/2000/svg" viewBox="0 0 24 24"><path d="M12.00 6.98Q13.64 6.98 15.98 9.33 15.98 12.66 13.64 15.00 10.36 15.00 8.02 12.66 8.02 9.33 10.36 6.98 12.00 6.98ZM12.00 9.00Q11.16 9.00 9.98 10.17 9.98 11.81 11.16 12.98 12.84 12.98 14.02 11.81 14.02 10.17 12.84 9.00 12.00 9.00ZM12.00 15.98Q13.50 15.98 15.28 16.45Q17.30 16.97 18.52 17.77Q20.02 18.75 20.02 20.02L20.02 23.02L3.98 23.02L3.98 20.02Q3.98 18.75 5.48 17.77Q6.70 16.97 8.72 16.45Q10.50 15.98 12.00 15.98ZM12.00 17.91Q10.59 17.91 9.09 18.28Q7.78 18.66 5.91 19.69 5.91 20.02L5.91 21.09L18.09 21.09L18.09 20.02Q18.09 19.69 16.22 18.66 14.91 18.28Q13.41 17.91 12.00 17.91Z"/></svg>
