<svg xmlns="http://www.w3.org/2000/svg" viewBox="0 0 24 24"><path d="M19.92 20.95Q19.97 20.72 19.97 20.30 19.92 20.06L20.91 19.31Q21.05 19.22 20.95 19.03L20.06 17.48Q20.02 17.39 19.83 17.34 19.78 17.39L18.61 17.81Q18.23 17.53 17.81 17.39L17.67 16.17Q17.62 15.98 17.44 15.98L15.56 15.98Q15.38 15.98 15.33 16.17L15.19 17.39Q14.77 17.53 14.39 17.81L13.22 17.39Q13.17 17.34 12.98 17.39 12.94 17.48L12.05 19.03Q11.95 19.22 12.09 19.31L13.08 20.06L13.03 20.48L13.08 20.95L12.09 21.70Q11.95 21.80 12.05 21.98L12.94 23.53Q13.03 23.67 13.22 23.62L14.39 23.16Q14.77 23.44 15.19 23.62L15.33 24.80Q15.38 24.98 15.56 24.98L17.44 24.98Q17.62 24.98 17.67 24.80L17.81 23.62Q18.23 23.44 18.61 23.16L19.78 23.62Q19.97 23.67 20.06 23.53L20.95 21.98Q21.05 21.80 20.91 21.70ZM16.50 21.98Q15.89 21.98 15.00 21.14 15.00 19.88 15.89 18.98 17.11 18.98 18.00 19.88 18.00 21.14 17.11 21.98 16.50 21.98ZM9.00 5.02Q10.36 5.44 12.00 7.78 12.00 10.69 10.36 13.03 9.00 13.50L9.00 24.52Q9.00 24.70 8.72 24.98 8.48 24.98L6.52 24.98Q6.00 24.98 6.00 24.42L6.00 13.41Q4.64 12.94 3.00 10.64 3.00 7.78 4.64 5.44 6.00 5.02L6.00 8.72L9.00 8.72Z"/></svg>
