<svg xmlns="http://www.w3.org/2000/svg" viewBox="0 0 24 24"><path d="M9.00 11.02L11.02 11.02L11.02 17.02L9.00 17.02ZM12.98 3.98L6.98 3.98L6.98 6.00L12.98 6.00ZM17.02 10.41Q17.95 11.58 18.98 14.44 18.98 15.98Q18.98 18.47 16.59 22.59 12.47 24.98 7.55 24.98 3.42 22.59 0.98 18.42 0.98 13.55 3.42 9.42 7.55 6.98 9.98 6.98Q11.58 6.98 14.44 8.06 15.61 9.00L17.06 7.55Q17.72 8.16 18.47 8.95ZM17.02 15.98Q17.02 14.11 15.14 10.88 11.91 9.00 8.11 9.00 4.88 10.88 3.00 14.11 3.00 17.91 4.88 21.14 8.11 23.02 11.91 23.02 15.14 21.14 17.02 17.91 17.02 15.98ZM21.00 9.98L21.00 15.98L23.02 15.98L23.02 9.98ZM21.00 20.02L23.02 20.02L23.02 18.00L21.00 18.00Z"/></svg>
