<svg xmlns="http://www.w3.org/2000/svg" viewBox="0 0 24 24"><path d="M12.98 5.02Q15.33 5.25 19.27 7.73 21.75 11.67 21.94 14.02Q22.22 16.69 20.02 21.52 15.70 24.66 12.98 24.94L12.98 22.92Q15.70 22.59 19.59 18.70 19.97 15.98Q20.20 13.83 18.56 9.89 15.14 7.31 12.98 7.03ZM11.02 5.06L11.02 7.08Q8.81 7.36 7.08 8.72L5.67 7.27Q7.97 5.34 11.02 5.06ZM4.27 8.67L5.67 10.08Q4.36 11.81 4.03 14.02L2.06 14.02Q2.34 10.97 4.27 8.67ZM2.06 15.98L4.08 15.98Q4.31 18.14 5.67 19.92L4.27 21.33Q2.34 18.98 2.06 15.98ZM7.08 21.38Q8.86 22.73 11.02 23.02L11.02 24.98Q8.02 24.66 5.67 22.73ZM12.00 19.50L7.50 15.00L11.02 15.00L11.02 11.02L12.98 11.02L12.98 15.00L16.50 15.00Z"/></svg>
