<svg xmlns="http://www.w3.org/2000/svg" viewBox="0 0 24 24"><path d="M9.00 24.98Q8.58 24.98 8.02 24.42 8.02 24.00L8.02 21.00L3.98 21.00Q3.19 21.00 2.02 19.83 2.02 18.98L2.02 6.98Q2.02 6.19 3.19 5.02 3.98 5.02L20.02 5.02Q20.81 5.02 21.98 6.19 21.98 6.98L21.98 18.98Q21.98 19.83 20.81 21.00 20.02 21.00L13.92 21.00L10.22 24.70Q9.89 24.98 9.52 24.98ZM9.98 18.98L9.98 22.08L13.08 18.98L20.02 18.98L20.02 6.98L3.98 6.98L3.98 18.98ZM6.00 9.98L18.00 9.98L18.00 12.00L6.00 12.00ZM6.00 14.02L15.00 14.02L15.00 15.98L6.00 15.98Z"/></svg>
