<svg xmlns="http://www.w3.org/2000/svg" viewBox="0 0 24 24"><path d="M17.48 18.52Q17.48 19.31 16.31 20.48 14.67 20.48 13.50 19.31 13.50 17.67 14.67 16.50 16.31 16.50 17.48 17.67 17.48 18.52ZM8.48 16.50Q7.69 16.50 6.52 17.67 6.52 19.31 7.69 20.48 9.33 20.48 10.50 19.31 10.50 17.67 9.33 16.50 8.48 16.50ZM23.02 18.00L23.02 21.00Q23.02 21.42 22.41 21.98 21.98 21.98L21.00 21.98L21.00 23.02Q21.00 23.81 19.83 24.98 18.98 24.98L5.02 24.98Q4.17 24.98 3.00 23.81 3.00 23.02L3.00 21.98L2.02 21.98Q1.59 21.98 0.98 21.42 0.98 21.00L0.98 18.00Q0.98 17.58 1.59 17.02 2.02 17.02L3.00 17.02Q3.00 15.09 4.88 11.86 8.11 9.98 9.98 9.98L11.02 9.98L11.02 8.72Q10.55 8.48 9.98 7.55 9.98 6.98Q9.98 6.19 11.16 5.02 12.84 5.02 14.02 6.19 14.02 6.98Q14.02 7.55 13.45 8.48 12.98 8.72L12.98 9.98L14.02 9.98Q15.89 9.98 19.12 11.86 21.00 15.09 21.00 17.02L21.98 17.02Q22.41 17.02 23.02 17.58 23.02 18.00ZM21.00 18.98L18.98 18.98L18.98 17.02Q18.98 15.66 17.67 13.36 15.38 12.00 14.02 12.00L9.98 12.00Q8.62 12.00 6.33 13.36 5.02 15.66 5.02 17.02L5.02 18.98L3.00 18.98L3.00 20.02L5.02 20.02L5.02 23.02L18.98 23.02L18.98 20.02L21.00 20.02Z"/></svg>
