<svg xmlns="http://www.w3.org/2000/svg" viewBox="0 0 24 24"><path d="M6.00 3.98L8.02 3.98L8.02 6.00L15.98 6.00L15.98 3.98L18.00 3.98L18.00 6.00L18.98 6.00Q19.83 6.00 21.00 7.17 21.00 8.02L21.00 14.02L18.98 14.02L18.98 11.02L5.02 11.02L5.02 21.98L15.00 21.98L15.00 24.00L5.02 24.00Q4.17 24.00 3.00 22.83 3.00 21.98L3.00 8.02Q3.00 7.17 4.17 6.00 5.02 6.00L6.00 6.00ZM17.02 24.00L18.80 25.78Q19.17 26.11 20.02 25.73 20.02 25.27L20.02 21.00L22.78 17.58Q23.16 17.06 22.59 15.98 21.98 15.98L15.00 15.98Q14.39 15.98 13.83 17.16 14.20 17.58L17.02 21.00Z"/></svg>
