<svg xmlns="http://www.w3.org/2000/svg" viewBox="0 0 24 24"><path d="M18.98 6.00Q19.83 6.00 21.00 7.17 21.00 8.02L21.00 21.98Q21.00 22.83 19.83 24.00 18.98 24.00L5.02 24.00Q4.17 24.00 3.00 22.83 3.00 21.98L3.00 8.02Q3.00 7.17 4.17 6.00 5.02 6.00ZM18.52 21.52L18.52 16.22Q18.52 14.86 16.59 12.94 15.23 12.94Q14.58 12.94 13.27 13.69 12.94 14.25L12.94 13.12L10.12 13.12L10.12 21.52L12.94 21.52L12.94 16.55Q12.94 15.98 13.73 15.19 14.91 15.19 15.70 15.98 15.70 16.55L15.70 21.52ZM6.89 11.58Q7.59 11.58 8.58 10.59 8.58 9.19 7.59 8.20 6.19 8.20 5.20 9.19 5.20 10.59 6.19 11.58 6.89 11.58ZM8.25 21.52L8.25 13.12L5.48 13.12L5.48 21.52Z"/></svg>
