<svg xmlns="http://www.w3.org/2000/svg" viewBox="0 0 24 24"><path d="M15.52 15.00Q17.39 15.00 20.02 17.62 20.02 19.50Q20.02 20.81 19.31 21.89L22.41 24.98L21.00 26.39L17.86 23.30Q16.78 24.00 15.52 24.00Q13.64 24.00 11.02 21.38 11.02 17.62 13.64 15.00 15.52 15.00ZM15.52 17.02Q14.48 17.02 12.98 18.47 12.98 20.53 14.48 21.98 16.55 21.98 18.00 20.53 18.00 18.47 16.55 17.02 15.52 17.02ZM19.50 5.02Q19.69 5.02 20.02 5.30 20.02 5.48L20.02 14.81Q19.08 13.97 18.00 13.50L18.00 7.69L15.00 8.86L15.00 12.98Q13.92 13.12 12.98 13.50L12.98 8.86L9.00 7.45L9.00 19.50Q9.00 20.44 9.28 21.33L8.02 20.91L2.67 22.97L2.48 23.02Q2.30 23.02 2.02 22.69 2.02 22.50L2.02 7.36Q2.02 7.03 2.34 6.89L8.02 5.02L14.02 7.08L19.36 5.02ZM3.98 8.44L3.98 20.30L6.98 19.17L6.98 7.45Z"/></svg>
