<svg xmlns="http://www.w3.org/2000/svg" viewBox="0 0 24 24"><path d="M21.98 6.00L2.02 6.00Q1.17 6.05 0.05 7.17 0.00 8.02L0.00 21.98Q0.05 22.83 1.17 23.95 2.02 24.00L21.98 24.00Q22.83 23.95 23.95 22.83 24.00 21.98L24.00 8.02Q23.95 7.17 22.83 6.05 21.98 6.00ZM21.98 21.98L2.02 21.98L2.02 8.02L21.98 8.02ZM14.02 20.02L14.02 18.75Q14.02 18.00 13.08 17.34Q12.28 16.83 11.02 16.55Q9.94 16.27 8.06 16.27 6.98 16.55Q5.72 16.83 4.92 17.34Q3.98 18.00 3.98 18.75L3.98 20.02ZM9.00 9.98Q7.97 9.98 6.52 11.48 6.52 13.55 7.97 15.00 10.03 15.00 11.48 13.55 11.48 11.48 10.03 9.98 9.00 9.98ZM14.02 9.98L14.02 11.02L20.02 11.02L20.02 9.98ZM14.02 12.00L14.02 12.98L20.02 12.98L20.02 12.00ZM14.02 14.02L14.02 15.00L18.00 15.00L18.00 14.02Z"/></svg>
