<svg xmlns="http://www.w3.org/2000/svg" viewBox="0 0 24 24"><path d="M18.98 21.98L18.98 11.02L5.02 11.02L5.02 21.98ZM15.98 3.98L18.00 3.98L18.00 6.00L18.98 6.00Q19.83 6.00 21.00 7.17 21.00 8.02L21.00 21.98Q21.00 22.83 19.83 24.00 18.98 24.00L5.02 24.00Q4.17 24.00 3.00 22.83 3.00 21.98L3.00 8.02Q3.00 7.17 4.17 6.00 5.02 6.00L6.00 6.00L6.00 3.98L8.02 3.98L8.02 6.00L15.98 6.00ZM11.02 12.52L12.98 12.52L12.98 15.52L15.98 15.52L15.98 17.48L12.98 17.48L12.98 20.48L11.02 20.48L11.02 17.48L8.02 17.48L8.02 15.52L11.02 15.52Z"/></svg>
