<svg xmlns="http://www.w3.org/2000/svg" viewBox="0 0 24 24"><path d="M22.12 24.47L2.39 4.73L1.12 6.00L5.81 10.73Q5.02 12.28 5.02 14.02L5.02 20.02L3.00 21.98L3.00 23.02L18.09 23.02L20.86 25.73ZM6.98 21.00L6.98 14.02Q6.98 13.08 7.36 12.23L16.12 21.00ZM9.98 24.00L14.02 24.00Q14.02 24.84 12.84 26.02 11.16 26.02 9.98 24.84 9.98 24.00ZM8.30 8.11Q9.00 7.64 9.98 7.31L9.98 6.98Q9.98 6.19 11.16 5.02 12.84 5.02 14.02 6.19 14.02 6.98L14.02 7.31Q16.22 7.97 18.98 11.67 18.98 14.02L18.98 18.80L17.02 16.78L17.02 14.02Q17.02 12.66 15.66 10.36 13.36 9.00 12.00 9.00Q10.83 9.00 9.75 9.56Z"/></svg>
