<svg xmlns="http://www.w3.org/2000/svg" viewBox="0 0 24 24"><path d="M17.06 15.98Q15.66 15.98 13.55 17.77 13.22 19.08Q12.00 18.56 10.78 19.08Q10.45 17.77 8.30 15.98 6.94 15.98Q5.30 15.98 3.00 18.33 3.00 21.66 5.30 24.00 8.48 24.00 10.73 21.89 10.83 20.30Q11.25 20.02 11.72 19.97Q12.47 19.88 13.17 20.34Q13.31 21.89 15.52 24.00 18.70 24.00 21.00 21.66 21.00 18.33 18.70 15.98 17.06 15.98ZM6.94 22.88Q5.77 22.88 4.12 21.19 4.12 18.80 5.77 17.16 8.11 17.16 9.75 18.80 9.75 21.19 8.11 22.88 6.94 22.88ZM17.06 22.88Q15.89 22.88 14.25 21.19 14.25 18.80 15.89 17.16 18.23 17.16 19.88 18.80 19.88 21.19 18.23 22.88 17.06 22.88ZM21.98 13.50L2.02 13.50L2.02 15.00L21.98 15.00ZM15.52 5.62Q15.38 5.25 14.62 4.92 14.20 5.06L12.00 5.81L9.70 5.06Q9.33 4.92 8.58 5.30 8.44 5.67L6.00 12.00L18.00 12.00Z"/></svg>
