<svg xmlns="http://www.w3.org/2000/svg" viewBox="0 0 24 24"><path d="M3.98 24.00L18.98 24.00Q19.83 24.00 21.00 22.83 21.00 21.98L21.00 15.98L17.02 15.98L17.02 18.00L12.98 15.00L17.02 12.00L17.02 14.02L21.00 14.02L21.00 8.02Q21.00 7.17 19.83 6.00 18.98 6.00L3.98 6.00Q3.19 6.00 2.02 7.17 2.02 8.02L2.02 21.98Q2.02 22.83 3.19 24.00 3.98 24.00ZM3.98 18.00L8.02 18.00L8.02 20.02L3.98 20.02ZM3.98 14.02L11.02 14.02L11.02 15.98L3.98 15.98ZM3.98 9.98L11.02 9.98L11.02 12.00L3.98 12.00ZM21.00 14.02L24.00 14.02L24.00 15.98L21.00 15.98Z"/></svg>
