<svg xmlns="http://www.w3.org/2000/svg" viewBox="0 0 24 24"><path d="M12.98 21.98Q12.98 22.41 13.08 23.02L6.52 23.02Q4.17 23.02 0.98 19.83 0.98 17.58Q0.98 15.61 3.33 12.56 5.25 12.14Q5.86 9.84 9.61 6.98 12.00 6.98Q14.91 6.98 18.98 11.06 18.98 14.02Q20.72 14.20 21.84 15.52Q22.64 16.36 22.88 17.44Q21.19 15.98 18.98 15.98Q17.39 15.98 14.62 17.62 12.98 20.39 12.98 21.98ZM20.02 21.00L20.02 18.00L18.00 18.00L18.00 21.00L15.00 21.00L15.00 23.02L18.00 23.02L18.00 26.02L20.02 26.02L20.02 23.02L23.02 23.02L23.02 21.00Z"/></svg>
