<svg xmlns="http://www.w3.org/2000/svg" viewBox="0 0 24 24"><path d="M9.00 5.02Q10.27 5.02 12.00 6.75 12.00 8.02L12.00 14.02Q12.00 15.23 10.27 17.02 7.73 17.02 6.00 15.23 6.00 14.02L6.00 8.02Q6.00 6.75 7.73 5.02 9.00 5.02ZM15.98 14.02Q15.98 15.70 14.44 18.70 11.72 20.67 9.98 20.95L9.98 24.00L8.02 24.00L8.02 20.95Q6.28 20.67 3.56 18.70 2.02 15.70 2.02 14.02L3.98 14.02Q3.98 15.38 5.34 17.67 7.64 18.98 10.36 18.98 12.66 17.67 14.02 15.38 14.02 14.02ZM15.00 8.02L18.00 8.02L18.00 5.02L20.02 5.02L20.02 8.02L23.02 8.02L23.02 9.98L20.02 9.98L20.02 12.98L18.00 12.98L18.00 9.98L15.00 9.98Z"/></svg>
