<svg xmlns="http://www.w3.org/2000/svg" viewBox="0 0 24 24"><path d="M14.02 5.02L6.00 5.02Q5.16 5.02 3.98 6.19 3.98 6.98L3.98 23.02Q3.98 23.81 5.16 24.98 6.00 24.98L18.00 24.98Q18.84 24.98 20.02 23.81 20.02 23.02L20.02 11.02ZM11.02 23.02L9.98 23.02Q9.09 23.02 8.25 22.59Q7.27 22.17 6.66 21.33Q6.00 20.39 6.00 17.62 6.66 16.64Q7.27 15.84 8.25 15.38Q9.09 15.00 9.98 15.00L11.02 15.00L11.02 17.02L9.98 17.02Q9.33 17.02 8.81 17.30Q8.02 17.81 8.02 20.20 8.86 20.72Q9.38 21.00 9.98 21.00L11.02 21.00ZM15.00 18.00L15.00 20.02L9.00 20.02L9.00 18.00ZM14.02 23.02L12.98 23.02L12.98 21.00L14.02 21.00Q14.67 21.00 15.19 20.67Q15.98 20.16 15.98 17.77 15.14 17.30Q14.62 17.02 14.02 17.02L12.98 17.02L12.98 15.00L14.02 15.00Q14.91 15.00 15.75 15.38Q16.73 15.84 17.34 16.64Q18.00 17.62 18.00 20.39 17.34 21.33Q16.73 22.17 15.75 22.59Q14.91 23.02 14.02 23.02ZM12.98 12.00L12.98 6.52L18.52 12.00Z"/></svg>
